<?xml version="1.0" encoding="utf-8" standalone="no"?>
<!DOCTYPE svg PUBLIC "-//W3C//DTD SVG 1.1//EN"
  "http://www.w3.org/Graphics/SVG/1.1/DTD/svg11.dtd">
<svg xmlns:xlink="http://www.w3.org/1999/xlink" width="576pt" height="576pt" viewBox="0 0 576 576" xmlns="http://www.w3.org/2000/svg" version="1.1">
 <metadata>
  <rdf:RDF xmlns:dc="http://purl.org/dc/elements/1.1/" xmlns:cc="http://creativecommons.org/ns#" xmlns:rdf="http://www.w3.org/1999/02/22-rdf-syntax-ns#">
   <cc:Work>
    <dc:type rdf:resource="http://purl.org/dc/dcmitype/StillImage"/>
    <dc:date>2023-01-16T14:47:22.179803</dc:date>
    <dc:format>image/svg+xml</dc:format>
    <dc:creator>
     <cc:Agent>
      <dc:title>Matplotlib v3.5.3, https://matplotlib.org/</dc:title>
     </cc:Agent>
    </dc:creator>
   </cc:Work>
  </rdf:RDF>
 </metadata>
 <defs>
  <style type="text/css">*{stroke-linejoin: round; stroke-linecap: butt}</style>
 </defs>
 <g id="figure_1">
  <g id="patch_1">
   <path d="M 0 576 
L 576 576 
L 576 0 
L 0 0 
z
" style="fill: #ffffff"/>
  </g>
  <g id="axes_1">
   <g id="patch_2">
    <path d="M 516.96 290.88 
C 516.96 261.758744 511.223747 232.920655 500.079525 206.016122 
C 488.935303 179.111589 472.599838 154.663838 452.008 134.072 
C 431.416162 113.480162 406.968411 97.144697 380.063878 86.000475 
C 353.159345 74.856253 324.321256 69.12 295.2 69.12 
C 266.078744 69.12 237.240655 74.856253 210.336122 86.000475 
C 183.431589 97.144697 158.983838 113.480162 138.392 134.072 
C 117.800162 154.663838 101.464697 179.111589 90.320475 206.016122 
C 79.176253 232.920655 73.44 261.758744 73.44 290.88 
C 73.44 320.001256 79.176253 348.839345 90.320475 375.743878 
C 101.464697 402.648411 117.800162 427.096162 138.392 447.688 
C 158.983838 468.279838 183.431589 484.615303 210.336122 495.759525 
C 237.240655 506.903747 266.078744 512.64 295.2 512.64 
C 324.321256 512.64 353.159345 506.903747 380.063878 495.759525 
C 406.968411 484.615303 431.416162 468.279838 452.008 447.688 
C 472.599838 427.096162 488.935303 402.648411 500.079525 375.743878 
C 511.223747 348.839345 516.96 320.001256 516.96 290.88 
M 295.2 290.88 
C 295.2 290.88 295.2 290.88 295.2 290.88 
C 295.2 290.88 295.2 290.88 295.2 290.88 
C 295.2 290.88 295.2 290.88 295.2 290.88 
C 295.2 290.88 295.2 290.88 295.2 290.88 
C 295.2 290.88 295.2 290.88 295.2 290.88 
C 295.2 290.88 295.2 290.88 295.2 290.88 
C 295.2 290.88 295.2 290.88 295.2 290.88 
C 295.2 290.88 295.2 290.88 295.2 290.88 
C 295.2 290.88 295.2 290.88 295.2 290.88 
C 295.2 290.88 295.2 290.88 295.2 290.88 
C 295.2 290.88 295.2 290.88 295.2 290.88 
C 295.2 290.88 295.2 290.88 295.2 290.88 
C 295.2 290.88 295.2 290.88 295.2 290.88 
C 295.2 290.88 295.2 290.88 295.2 290.88 
C 295.2 290.88 295.2 290.88 295.2 290.88 
C 295.2 290.88 295.2 290.88 295.2 290.88 
M 516.96 290.88 
z
" style="fill: #ffffff"/>
   </g>
   <g id="patch_3">
    <path d="M 308.7828 290.88 
L 297.899933 289.462966 
L 299.294156 284.948591 
L 295.734604 286.477138 
L 295.2 290.88 
L 294.370051 290.14473 
L 293.58513 290.48197 
L 294.392565 291.079015 
L 281.505846 303.011962 
L 292.742588 297.359663 
L 295.935081 296.933936 
L 295.514935 291.336262 
L 295.2 290.88 
z
" clip-path="url(#p8d6991403b)" style="fill: #1f77b4; opacity: 0.4"/>
   </g>
   <g id="patch_4">
    <path d="M 304.3476 290.88 
L 295.936345 290.493536 
L 297.404546 287.686164 
L 295.500715 288.40339 
L 295.101704 290.620813 
L 293.955077 289.777094 
L 294.930855 290.813662 
L 294.66171 291.012677 
L 287.730462 297.497434 
L 294.118739 293.731052 
L 295.868255 296.383578 
L 295.514935 291.336262 
L 295.2 290.88 
z
" clip-path="url(#p8d6991403b)" style="fill: #ff7f0e; opacity: 0.4"/>
   </g>
   <g id="matplotlib.axis_1">
    <g id="xtick_1">
     <g id="line2d_1">
      <path d="M 295.2 290.88 
L 516.96 290.88 
" clip-path="url(#p8d6991403b)" style="fill: none; stroke: #b0b0b0; stroke-width: 0.8; stroke-linecap: square"/>
     </g>
     <g id="text_1">
      <!-- exonic -->
      <g style="fill: #808080" transform="translate(511.569688 294.19125)scale(0.12 -0.12)">
       <defs>
        <path id="DejaVuSans-65" d="M 3597 1894 
L 3597 1613 
L 953 1613 
Q 991 1019 1311 708 
Q 1631 397 2203 397 
Q 2534 397 2845 478 
Q 3156 559 3463 722 
L 3463 178 
Q 3153 47 2828 -22 
Q 2503 -91 2169 -91 
Q 1331 -91 842 396 
Q 353 884 353 1716 
Q 353 2575 817 3079 
Q 1281 3584 2069 3584 
Q 2775 3584 3186 3129 
Q 3597 2675 3597 1894 
z
M 3022 2063 
Q 3016 2534 2758 2815 
Q 2500 3097 2075 3097 
Q 1594 3097 1305 2825 
Q 1016 2553 972 2059 
L 3022 2063 
z
" transform="scale(0.015625)"/>
        <path id="DejaVuSans-78" d="M 3513 3500 
L 2247 1797 
L 3578 0 
L 2900 0 
L 1881 1375 
L 863 0 
L 184 0 
L 1544 1831 
L 300 3500 
L 978 3500 
L 1906 2253 
L 2834 3500 
L 3513 3500 
z
" transform="scale(0.015625)"/>
        <path id="DejaVuSans-6f" d="M 1959 3097 
Q 1497 3097 1228 2736 
Q 959 2375 959 1747 
Q 959 1119 1226 758 
Q 1494 397 1959 397 
Q 2419 397 2687 759 
Q 2956 1122 2956 1747 
Q 2956 2369 2687 2733 
Q 2419 3097 1959 3097 
z
M 1959 3584 
Q 2709 3584 3137 3096 
Q 3566 2609 3566 1747 
Q 3566 888 3137 398 
Q 2709 -91 1959 -91 
Q 1206 -91 779 398 
Q 353 888 353 1747 
Q 353 2609 779 3096 
Q 1206 3584 1959 3584 
z
" transform="scale(0.015625)"/>
        <path id="DejaVuSans-6e" d="M 3513 2113 
L 3513 0 
L 2938 0 
L 2938 2094 
Q 2938 2591 2744 2837 
Q 2550 3084 2163 3084 
Q 1697 3084 1428 2787 
Q 1159 2491 1159 1978 
L 1159 0 
L 581 0 
L 581 3500 
L 1159 3500 
L 1159 2956 
Q 1366 3272 1645 3428 
Q 1925 3584 2291 3584 
Q 2894 3584 3203 3211 
Q 3513 2838 3513 2113 
z
" transform="scale(0.015625)"/>
        <path id="DejaVuSans-69" d="M 603 3500 
L 1178 3500 
L 1178 0 
L 603 0 
L 603 3500 
z
M 603 4863 
L 1178 4863 
L 1178 4134 
L 603 4134 
L 603 4863 
z
" transform="scale(0.015625)"/>
        <path id="DejaVuSans-63" d="M 3122 3366 
L 3122 2828 
Q 2878 2963 2633 3030 
Q 2388 3097 2138 3097 
Q 1578 3097 1268 2742 
Q 959 2388 959 1747 
Q 959 1106 1268 751 
Q 1578 397 2138 397 
Q 2388 397 2633 464 
Q 2878 531 3122 666 
L 3122 134 
Q 2881 22 2623 -34 
Q 2366 -91 2075 -91 
Q 1284 -91 818 406 
Q 353 903 353 1747 
Q 353 2603 823 3093 
Q 1294 3584 2113 3584 
Q 2378 3584 2631 3529 
Q 2884 3475 3122 3366 
z
" transform="scale(0.015625)"/>
       </defs>
       <use xlink:href="#DejaVuSans-65"/>
       <use xlink:href="#DejaVuSans-78" x="59.773438"/>
       <use xlink:href="#DejaVuSans-6f" x="115.828125"/>
       <use xlink:href="#DejaVuSans-6e" x="177.009766"/>
       <use xlink:href="#DejaVuSans-69" x="240.388672"/>
       <use xlink:href="#DejaVuSans-63" x="268.171875"/>
      </g>
     </g>
    </g>
    <g id="xtick_2">
     <g id="line2d_2">
      <path d="M 295.2 290.88 
L 491.558728 187.822989 
" clip-path="url(#p8d6991403b)" style="fill: none; stroke: #b0b0b0; stroke-width: 0.8; stroke-linecap: square"/>
     </g>
     <g id="text_2">
      <!-- UTR3 -->
      <g style="fill: #808080" transform="translate(487.912613 184.628115)scale(0.12 -0.12)">
       <defs>
        <path id="DejaVuSans-55" d="M 556 4666 
L 1191 4666 
L 1191 1831 
Q 1191 1081 1462 751 
Q 1734 422 2344 422 
Q 2950 422 3222 751 
Q 3494 1081 3494 1831 
L 3494 4666 
L 4128 4666 
L 4128 1753 
Q 4128 841 3676 375 
Q 3225 -91 2344 -91 
Q 1459 -91 1007 375 
Q 556 841 556 1753 
L 556 4666 
z
" transform="scale(0.015625)"/>
        <path id="DejaVuSans-54" d="M -19 4666 
L 3928 4666 
L 3928 4134 
L 2272 4134 
L 2272 0 
L 1638 0 
L 1638 4134 
L -19 4134 
L -19 4666 
z
" transform="scale(0.015625)"/>
        <path id="DejaVuSans-52" d="M 2841 2188 
Q 3044 2119 3236 1894 
Q 3428 1669 3622 1275 
L 4263 0 
L 3584 0 
L 2988 1197 
Q 2756 1666 2539 1819 
Q 2322 1972 1947 1972 
L 1259 1972 
L 1259 0 
L 628 0 
L 628 4666 
L 2053 4666 
Q 2853 4666 3247 4331 
Q 3641 3997 3641 3322 
Q 3641 2881 3436 2590 
Q 3231 2300 2841 2188 
z
M 1259 4147 
L 1259 2491 
L 2053 2491 
Q 2509 2491 2742 2702 
Q 2975 2913 2975 3322 
Q 2975 3731 2742 3939 
Q 2509 4147 2053 4147 
L 1259 4147 
z
" transform="scale(0.015625)"/>
        <path id="DejaVuSans-33" d="M 2597 2516 
Q 3050 2419 3304 2112 
Q 3559 1806 3559 1356 
Q 3559 666 3084 287 
Q 2609 -91 1734 -91 
Q 1441 -91 1130 -33 
Q 819 25 488 141 
L 488 750 
Q 750 597 1062 519 
Q 1375 441 1716 441 
Q 2309 441 2620 675 
Q 2931 909 2931 1356 
Q 2931 1769 2642 2001 
Q 2353 2234 1838 2234 
L 1294 2234 
L 1294 2753 
L 1863 2753 
Q 2328 2753 2575 2939 
Q 2822 3125 2822 3475 
Q 2822 3834 2567 4026 
Q 2313 4219 1838 4219 
Q 1578 4219 1281 4162 
Q 984 4106 628 3988 
L 628 4550 
Q 988 4650 1302 4700 
Q 1616 4750 1894 4750 
Q 2613 4750 3031 4423 
Q 3450 4097 3450 3541 
Q 3450 3153 3228 2886 
Q 3006 2619 2597 2516 
z
" transform="scale(0.015625)"/>
       </defs>
       <use xlink:href="#DejaVuSans-55"/>
       <use xlink:href="#DejaVuSans-54" x="73.193359"/>
       <use xlink:href="#DejaVuSans-52" x="134.277344"/>
       <use xlink:href="#DejaVuSans-33" x="203.759766"/>
      </g>
     </g>
    </g>
    <g id="xtick_3">
     <g id="line2d_3">
      <path d="M 295.2 290.88 
L 421.174038 108.375098 
" clip-path="url(#p8d6991403b)" style="fill: none; stroke: #b0b0b0; stroke-width: 0.8; stroke-linecap: square"/>
     </g>
     <g id="text_3">
      <!-- intergenic -->
      <g style="fill: #808080" transform="translate(398.98257 100.164574)scale(0.12 -0.12)">
       <defs>
        <path id="DejaVuSans-74" d="M 1172 4494 
L 1172 3500 
L 2356 3500 
L 2356 3053 
L 1172 3053 
L 1172 1153 
Q 1172 725 1289 603 
Q 1406 481 1766 481 
L 2356 481 
L 2356 0 
L 1766 0 
Q 1100 0 847 248 
Q 594 497 594 1153 
L 594 3053 
L 172 3053 
L 172 3500 
L 594 3500 
L 594 4494 
L 1172 4494 
z
" transform="scale(0.015625)"/>
        <path id="DejaVuSans-72" d="M 2631 2963 
Q 2534 3019 2420 3045 
Q 2306 3072 2169 3072 
Q 1681 3072 1420 2755 
Q 1159 2438 1159 1844 
L 1159 0 
L 581 0 
L 581 3500 
L 1159 3500 
L 1159 2956 
Q 1341 3275 1631 3429 
Q 1922 3584 2338 3584 
Q 2397 3584 2469 3576 
Q 2541 3569 2628 3553 
L 2631 2963 
z
" transform="scale(0.015625)"/>
        <path id="DejaVuSans-67" d="M 2906 1791 
Q 2906 2416 2648 2759 
Q 2391 3103 1925 3103 
Q 1463 3103 1205 2759 
Q 947 2416 947 1791 
Q 947 1169 1205 825 
Q 1463 481 1925 481 
Q 2391 481 2648 825 
Q 2906 1169 2906 1791 
z
M 3481 434 
Q 3481 -459 3084 -895 
Q 2688 -1331 1869 -1331 
Q 1566 -1331 1297 -1286 
Q 1028 -1241 775 -1147 
L 775 -588 
Q 1028 -725 1275 -790 
Q 1522 -856 1778 -856 
Q 2344 -856 2625 -561 
Q 2906 -266 2906 331 
L 2906 616 
Q 2728 306 2450 153 
Q 2172 0 1784 0 
Q 1141 0 747 490 
Q 353 981 353 1791 
Q 353 2603 747 3093 
Q 1141 3584 1784 3584 
Q 2172 3584 2450 3431 
Q 2728 3278 2906 2969 
L 2906 3500 
L 3481 3500 
L 3481 434 
z
" transform="scale(0.015625)"/>
       </defs>
       <use xlink:href="#DejaVuSans-69"/>
       <use xlink:href="#DejaVuSans-6e" x="27.783203"/>
       <use xlink:href="#DejaVuSans-74" x="91.162109"/>
       <use xlink:href="#DejaVuSans-65" x="130.371094"/>
       <use xlink:href="#DejaVuSans-72" x="191.894531"/>
       <use xlink:href="#DejaVuSans-67" x="231.257812"/>
       <use xlink:href="#DejaVuSans-65" x="294.734375"/>
       <use xlink:href="#DejaVuSans-6e" x="356.257812"/>
       <use xlink:href="#DejaVuSans-69" x="419.636719"/>
       <use xlink:href="#DejaVuSans-63" x="447.419922"/>
      </g>
     </g>
    </g>
    <g id="xtick_4">
     <g id="line2d_4">
      <path d="M 295.2 290.88 
L 321.930214 70.73688 
" clip-path="url(#p8d6991403b)" style="fill: none; stroke: #b0b0b0; stroke-width: 0.8; stroke-linecap: square"/>
     </g>
     <g id="text_4">
      <!-- intronic -->
      <g style="fill: #808080" transform="translate(301.024915 60.150206)scale(0.12 -0.12)">
       <use xlink:href="#DejaVuSans-69"/>
       <use xlink:href="#DejaVuSans-6e" x="27.783203"/>
       <use xlink:href="#DejaVuSans-74" x="91.162109"/>
       <use xlink:href="#DejaVuSans-72" x="130.371094"/>
       <use xlink:href="#DejaVuSans-6f" x="169.234375"/>
       <use xlink:href="#DejaVuSans-6e" x="230.416016"/>
       <use xlink:href="#DejaVuSans-69" x="293.794922"/>
       <use xlink:href="#DejaVuSans-63" x="321.578125"/>
      </g>
     </g>
    </g>
    <g id="xtick_5">
     <g id="line2d_5">
      <path d="M 295.2 290.88 
L 216.56282 83.530798 
" clip-path="url(#p8d6991403b)" style="fill: none; stroke: #b0b0b0; stroke-width: 0.8; stroke-linecap: square"/>
     </g>
     <g id="text_5">
      <!-- ncRNA_exonic -->
      <g style="fill: #808080" transform="translate(169.344289 73.584946)scale(0.12 -0.12)">
       <defs>
        <path id="DejaVuSans-4e" d="M 628 4666 
L 1478 4666 
L 3547 763 
L 3547 4666 
L 4159 4666 
L 4159 0 
L 3309 0 
L 1241 3903 
L 1241 0 
L 628 0 
L 628 4666 
z
" transform="scale(0.015625)"/>
        <path id="DejaVuSans-41" d="M 2188 4044 
L 1331 1722 
L 3047 1722 
L 2188 4044 
z
M 1831 4666 
L 2547 4666 
L 4325 0 
L 3669 0 
L 3244 1197 
L 1141 1197 
L 716 0 
L 50 0 
L 1831 4666 
z
" transform="scale(0.015625)"/>
        <path id="DejaVuSans-5f" d="M 3263 -1063 
L 3263 -1509 
L -63 -1509 
L -63 -1063 
L 3263 -1063 
z
" transform="scale(0.015625)"/>
       </defs>
       <use xlink:href="#DejaVuSans-6e"/>
       <use xlink:href="#DejaVuSans-63" x="63.378906"/>
       <use xlink:href="#DejaVuSans-52" x="118.359375"/>
       <use xlink:href="#DejaVuSans-4e" x="187.841797"/>
       <use xlink:href="#DejaVuSans-41" x="262.646484"/>
       <use xlink:href="#DejaVuSans-5f" x="331.054688"/>
       <use xlink:href="#DejaVuSans-65" x="381.054688"/>
       <use xlink:href="#DejaVuSans-78" x="440.828125"/>
       <use xlink:href="#DejaVuSans-6f" x="496.882812"/>
       <use xlink:href="#DejaVuSans-6e" x="558.064453"/>
       <use xlink:href="#DejaVuSans-69" x="621.443359"/>
       <use xlink:href="#DejaVuSans-63" x="649.226562"/>
      </g>
     </g>
    </g>
    <g id="xtick_6">
     <g id="line2d_6">
      <path d="M 295.2 290.88 
L 129.210256 143.825919 
" clip-path="url(#p8d6991403b)" style="fill: none; stroke: #b0b0b0; stroke-width: 0.8; stroke-linecap: square"/>
     </g>
     <g id="text_6">
      <!-- downstream -->
      <g style="fill: #808080" transform="translate(81.518919 137.853452)scale(0.12 -0.12)">
       <defs>
        <path id="DejaVuSans-64" d="M 2906 2969 
L 2906 4863 
L 3481 4863 
L 3481 0 
L 2906 0 
L 2906 525 
Q 2725 213 2448 61 
Q 2172 -91 1784 -91 
Q 1150 -91 751 415 
Q 353 922 353 1747 
Q 353 2572 751 3078 
Q 1150 3584 1784 3584 
Q 2172 3584 2448 3432 
Q 2725 3281 2906 2969 
z
M 947 1747 
Q 947 1113 1208 752 
Q 1469 391 1925 391 
Q 2381 391 2643 752 
Q 2906 1113 2906 1747 
Q 2906 2381 2643 2742 
Q 2381 3103 1925 3103 
Q 1469 3103 1208 2742 
Q 947 2381 947 1747 
z
" transform="scale(0.015625)"/>
        <path id="DejaVuSans-77" d="M 269 3500 
L 844 3500 
L 1563 769 
L 2278 3500 
L 2956 3500 
L 3675 769 
L 4391 3500 
L 4966 3500 
L 4050 0 
L 3372 0 
L 2619 2869 
L 1863 0 
L 1184 0 
L 269 3500 
z
" transform="scale(0.015625)"/>
        <path id="DejaVuSans-73" d="M 2834 3397 
L 2834 2853 
Q 2591 2978 2328 3040 
Q 2066 3103 1784 3103 
Q 1356 3103 1142 2972 
Q 928 2841 928 2578 
Q 928 2378 1081 2264 
Q 1234 2150 1697 2047 
L 1894 2003 
Q 2506 1872 2764 1633 
Q 3022 1394 3022 966 
Q 3022 478 2636 193 
Q 2250 -91 1575 -91 
Q 1294 -91 989 -36 
Q 684 19 347 128 
L 347 722 
Q 666 556 975 473 
Q 1284 391 1588 391 
Q 1994 391 2212 530 
Q 2431 669 2431 922 
Q 2431 1156 2273 1281 
Q 2116 1406 1581 1522 
L 1381 1569 
Q 847 1681 609 1914 
Q 372 2147 372 2553 
Q 372 3047 722 3315 
Q 1072 3584 1716 3584 
Q 2034 3584 2315 3537 
Q 2597 3491 2834 3397 
z
" transform="scale(0.015625)"/>
        <path id="DejaVuSans-61" d="M 2194 1759 
Q 1497 1759 1228 1600 
Q 959 1441 959 1056 
Q 959 750 1161 570 
Q 1363 391 1709 391 
Q 2188 391 2477 730 
Q 2766 1069 2766 1631 
L 2766 1759 
L 2194 1759 
z
M 3341 1997 
L 3341 0 
L 2766 0 
L 2766 531 
Q 2569 213 2275 61 
Q 1981 -91 1556 -91 
Q 1019 -91 701 211 
Q 384 513 384 1019 
Q 384 1609 779 1909 
Q 1175 2209 1959 2209 
L 2766 2209 
L 2766 2266 
Q 2766 2663 2505 2880 
Q 2244 3097 1772 3097 
Q 1472 3097 1187 3025 
Q 903 2953 641 2809 
L 641 3341 
Q 956 3463 1253 3523 
Q 1550 3584 1831 3584 
Q 2591 3584 2966 3190 
Q 3341 2797 3341 1997 
z
" transform="scale(0.015625)"/>
        <path id="DejaVuSans-6d" d="M 3328 2828 
Q 3544 3216 3844 3400 
Q 4144 3584 4550 3584 
Q 5097 3584 5394 3201 
Q 5691 2819 5691 2113 
L 5691 0 
L 5113 0 
L 5113 2094 
Q 5113 2597 4934 2840 
Q 4756 3084 4391 3084 
Q 3944 3084 3684 2787 
Q 3425 2491 3425 1978 
L 3425 0 
L 2847 0 
L 2847 2094 
Q 2847 2600 2669 2842 
Q 2491 3084 2119 3084 
Q 1678 3084 1418 2786 
Q 1159 2488 1159 1978 
L 1159 0 
L 581 0 
L 581 3500 
L 1159 3500 
L 1159 2956 
Q 1356 3278 1631 3431 
Q 1906 3584 2284 3584 
Q 2666 3584 2933 3390 
Q 3200 3197 3328 2828 
z
" transform="scale(0.015625)"/>
       </defs>
       <use xlink:href="#DejaVuSans-64"/>
       <use xlink:href="#DejaVuSans-6f" x="63.476562"/>
       <use xlink:href="#DejaVuSans-77" x="124.658203"/>
       <use xlink:href="#DejaVuSans-6e" x="206.445312"/>
       <use xlink:href="#DejaVuSans-73" x="269.824219"/>
       <use xlink:href="#DejaVuSans-74" x="321.923828"/>
       <use xlink:href="#DejaVuSans-72" x="361.132812"/>
       <use xlink:href="#DejaVuSans-65" x="399.996094"/>
       <use xlink:href="#DejaVuSans-61" x="461.519531"/>
       <use xlink:href="#DejaVuSans-6d" x="522.798828"/>
      </g>
     </g>
    </g>
    <g id="xtick_7">
     <g id="line2d_7">
      <path d="M 295.2 290.88 
L 79.883943 237.809358 
" clip-path="url(#p8d6991403b)" style="fill: none; stroke: #b0b0b0; stroke-width: 0.8; stroke-linecap: square"/>
     </g>
     <g id="text_7">
      <!-- ncRNA_intronic -->
      <g style="fill: #808080" transform="translate(20.834195 237.603314)scale(0.12 -0.12)">
       <use xlink:href="#DejaVuSans-6e"/>
       <use xlink:href="#DejaVuSans-63" x="63.378906"/>
       <use xlink:href="#DejaVuSans-52" x="118.359375"/>
       <use xlink:href="#DejaVuSans-4e" x="187.841797"/>
       <use xlink:href="#DejaVuSans-41" x="262.646484"/>
       <use xlink:href="#DejaVuSans-5f" x="331.054688"/>
       <use xlink:href="#DejaVuSans-69" x="381.054688"/>
       <use xlink:href="#DejaVuSans-6e" x="408.837891"/>
       <use xlink:href="#DejaVuSans-74" x="472.216797"/>
       <use xlink:href="#DejaVuSans-72" x="511.425781"/>
       <use xlink:href="#DejaVuSans-6f" x="550.289062"/>
       <use xlink:href="#DejaVuSans-6e" x="611.470703"/>
       <use xlink:href="#DejaVuSans-69" x="674.849609"/>
       <use xlink:href="#DejaVuSans-63" x="702.632812"/>
      </g>
     </g>
    </g>
    <g id="xtick_8">
     <g id="line2d_8">
      <path d="M 295.2 290.88 
L 79.883943 343.950642 
" clip-path="url(#p8d6991403b)" style="fill: none; stroke: #b0b0b0; stroke-width: 0.8; stroke-linecap: square"/>
     </g>
     <g id="text_8">
      <!-- UTR5 -->
      <g style="fill: #808080" transform="translate(50.248257 350.612311)scale(0.12 -0.12)">
       <defs>
        <path id="DejaVuSans-35" d="M 691 4666 
L 3169 4666 
L 3169 4134 
L 1269 4134 
L 1269 2991 
Q 1406 3038 1543 3061 
Q 1681 3084 1819 3084 
Q 2600 3084 3056 2656 
Q 3513 2228 3513 1497 
Q 3513 744 3044 326 
Q 2575 -91 1722 -91 
Q 1428 -91 1123 -41 
Q 819 9 494 109 
L 494 744 
Q 775 591 1075 516 
Q 1375 441 1709 441 
Q 2250 441 2565 725 
Q 2881 1009 2881 1497 
Q 2881 1984 2565 2268 
Q 2250 2553 1709 2553 
Q 1456 2553 1204 2497 
Q 953 2441 691 2322 
L 691 4666 
z
" transform="scale(0.015625)"/>
       </defs>
       <use xlink:href="#DejaVuSans-55"/>
       <use xlink:href="#DejaVuSans-54" x="73.193359"/>
       <use xlink:href="#DejaVuSans-52" x="134.277344"/>
       <use xlink:href="#DejaVuSans-35" x="203.759766"/>
      </g>
     </g>
    </g>
    <g id="xtick_9">
     <g id="line2d_9">
      <path d="M 295.2 290.88 
L 129.210256 437.934081 
" clip-path="url(#p8d6991403b)" style="fill: none; stroke: #b0b0b0; stroke-width: 0.8; stroke-linecap: square"/>
     </g>
     <g id="text_9">
      <!-- . -->
      <g style="fill: #808080" transform="translate(116.824231 450.529048)scale(0.12 -0.12)">
       <defs>
        <path id="DejaVuSans-2e" d="M 684 794 
L 1344 794 
L 1344 0 
L 684 0 
L 684 794 
z
" transform="scale(0.015625)"/>
       </defs>
       <use xlink:href="#DejaVuSans-2e"/>
      </g>
     </g>
    </g>
    <g id="xtick_10">
     <g id="line2d_10">
      <path d="M 295.2 290.88 
L 216.56282 498.229202 
" clip-path="url(#p8d6991403b)" style="fill: none; stroke: #b0b0b0; stroke-width: 0.8; stroke-linecap: square"/>
     </g>
     <g id="text_10">
      <!-- nonsynonymous_SNV -->
      <g style="fill: #808080" transform="translate(146.971789 514.357867)scale(0.12 -0.12)">
       <defs>
        <path id="DejaVuSans-79" d="M 2059 -325 
Q 1816 -950 1584 -1140 
Q 1353 -1331 966 -1331 
L 506 -1331 
L 506 -850 
L 844 -850 
Q 1081 -850 1212 -737 
Q 1344 -625 1503 -206 
L 1606 56 
L 191 3500 
L 800 3500 
L 1894 763 
L 2988 3500 
L 3597 3500 
L 2059 -325 
z
" transform="scale(0.015625)"/>
        <path id="DejaVuSans-75" d="M 544 1381 
L 544 3500 
L 1119 3500 
L 1119 1403 
Q 1119 906 1312 657 
Q 1506 409 1894 409 
Q 2359 409 2629 706 
Q 2900 1003 2900 1516 
L 2900 3500 
L 3475 3500 
L 3475 0 
L 2900 0 
L 2900 538 
Q 2691 219 2414 64 
Q 2138 -91 1772 -91 
Q 1169 -91 856 284 
Q 544 659 544 1381 
z
M 1991 3584 
L 1991 3584 
z
" transform="scale(0.015625)"/>
        <path id="DejaVuSans-53" d="M 3425 4513 
L 3425 3897 
Q 3066 4069 2747 4153 
Q 2428 4238 2131 4238 
Q 1616 4238 1336 4038 
Q 1056 3838 1056 3469 
Q 1056 3159 1242 3001 
Q 1428 2844 1947 2747 
L 2328 2669 
Q 3034 2534 3370 2195 
Q 3706 1856 3706 1288 
Q 3706 609 3251 259 
Q 2797 -91 1919 -91 
Q 1588 -91 1214 -16 
Q 841 59 441 206 
L 441 856 
Q 825 641 1194 531 
Q 1563 422 1919 422 
Q 2459 422 2753 634 
Q 3047 847 3047 1241 
Q 3047 1584 2836 1778 
Q 2625 1972 2144 2069 
L 1759 2144 
Q 1053 2284 737 2584 
Q 422 2884 422 3419 
Q 422 4038 858 4394 
Q 1294 4750 2059 4750 
Q 2388 4750 2728 4690 
Q 3069 4631 3425 4513 
z
" transform="scale(0.015625)"/>
        <path id="DejaVuSans-56" d="M 1831 0 
L 50 4666 
L 709 4666 
L 2188 738 
L 3669 4666 
L 4325 4666 
L 2547 0 
L 1831 0 
z
" transform="scale(0.015625)"/>
       </defs>
       <use xlink:href="#DejaVuSans-6e"/>
       <use xlink:href="#DejaVuSans-6f" x="63.378906"/>
       <use xlink:href="#DejaVuSans-6e" x="124.560547"/>
       <use xlink:href="#DejaVuSans-73" x="187.939453"/>
       <use xlink:href="#DejaVuSans-79" x="240.039062"/>
       <use xlink:href="#DejaVuSans-6e" x="299.21875"/>
       <use xlink:href="#DejaVuSans-6f" x="362.597656"/>
       <use xlink:href="#DejaVuSans-6e" x="423.779297"/>
       <use xlink:href="#DejaVuSans-79" x="487.158203"/>
       <use xlink:href="#DejaVuSans-6d" x="546.337891"/>
       <use xlink:href="#DejaVuSans-6f" x="643.75"/>
       <use xlink:href="#DejaVuSans-75" x="704.931641"/>
       <use xlink:href="#DejaVuSans-73" x="768.310547"/>
       <use xlink:href="#DejaVuSans-5f" x="820.410156"/>
       <use xlink:href="#DejaVuSans-53" x="870.410156"/>
       <use xlink:href="#DejaVuSans-4e" x="933.886719"/>
       <use xlink:href="#DejaVuSans-56" x="1008.691406"/>
      </g>
     </g>
    </g>
    <g id="xtick_11">
     <g id="line2d_11">
      <path d="M 295.2 290.88 
L 321.930214 511.02312 
" clip-path="url(#p8d6991403b)" style="fill: none; stroke: #b0b0b0; stroke-width: 0.8; stroke-linecap: square"/>
     </g>
     <g id="text_11">
      <!-- synonymous_SNV -->
      <g style="fill: #808080" transform="translate(270.267415 527.959482)scale(0.12 -0.12)">
       <use xlink:href="#DejaVuSans-73"/>
       <use xlink:href="#DejaVuSans-79" x="52.099609"/>
       <use xlink:href="#DejaVuSans-6e" x="111.279297"/>
       <use xlink:href="#DejaVuSans-6f" x="174.658203"/>
       <use xlink:href="#DejaVuSans-6e" x="235.839844"/>
       <use xlink:href="#DejaVuSans-79" x="299.21875"/>
       <use xlink:href="#DejaVuSans-6d" x="358.398438"/>
       <use xlink:href="#DejaVuSans-6f" x="455.810547"/>
       <use xlink:href="#DejaVuSans-75" x="516.992188"/>
       <use xlink:href="#DejaVuSans-73" x="580.371094"/>
       <use xlink:href="#DejaVuSans-5f" x="632.470703"/>
       <use xlink:href="#DejaVuSans-53" x="682.470703"/>
       <use xlink:href="#DejaVuSans-4e" x="745.947266"/>
       <use xlink:href="#DejaVuSans-56" x="820.751953"/>
      </g>
     </g>
    </g>
    <g id="xtick_12">
     <g id="line2d_12">
      <path d="M 295.2 290.88 
L 421.174038 473.384902 
" clip-path="url(#p8d6991403b)" style="fill: none; stroke: #b0b0b0; stroke-width: 0.8; stroke-linecap: square"/>
     </g>
     <g id="text_12">
      <!-- stopgain -->
      <g style="fill: #808080" transform="translate(403.213507 488.217926)scale(0.12 -0.12)">
       <defs>
        <path id="DejaVuSans-70" d="M 1159 525 
L 1159 -1331 
L 581 -1331 
L 581 3500 
L 1159 3500 
L 1159 2969 
Q 1341 3281 1617 3432 
Q 1894 3584 2278 3584 
Q 2916 3584 3314 3078 
Q 3713 2572 3713 1747 
Q 3713 922 3314 415 
Q 2916 -91 2278 -91 
Q 1894 -91 1617 61 
Q 1341 213 1159 525 
z
M 3116 1747 
Q 3116 2381 2855 2742 
Q 2594 3103 2138 3103 
Q 1681 3103 1420 2742 
Q 1159 2381 1159 1747 
Q 1159 1113 1420 752 
Q 1681 391 2138 391 
Q 2594 391 2855 752 
Q 3116 1113 3116 1747 
z
" transform="scale(0.015625)"/>
       </defs>
       <use xlink:href="#DejaVuSans-73"/>
       <use xlink:href="#DejaVuSans-74" x="52.099609"/>
       <use xlink:href="#DejaVuSans-6f" x="91.308594"/>
       <use xlink:href="#DejaVuSans-70" x="152.490234"/>
       <use xlink:href="#DejaVuSans-67" x="215.966797"/>
       <use xlink:href="#DejaVuSans-61" x="279.443359"/>
       <use xlink:href="#DejaVuSans-69" x="340.722656"/>
       <use xlink:href="#DejaVuSans-6e" x="368.505859"/>
      </g>
     </g>
    </g>
    <g id="xtick_13">
     <g id="line2d_13">
      <path d="M 295.2 290.88 
L 491.558728 393.937011 
" clip-path="url(#p8d6991403b)" style="fill: none; stroke: #b0b0b0; stroke-width: 0.8; stroke-linecap: square"/>
     </g>
     <g id="text_13">
      <!-- frameshift_deletion -->
      <g style="fill: #808080" transform="translate(445.856363 403.58751)scale(0.12 -0.12)">
       <defs>
        <path id="DejaVuSans-66" d="M 2375 4863 
L 2375 4384 
L 1825 4384 
Q 1516 4384 1395 4259 
Q 1275 4134 1275 3809 
L 1275 3500 
L 2222 3500 
L 2222 3053 
L 1275 3053 
L 1275 0 
L 697 0 
L 697 3053 
L 147 3053 
L 147 3500 
L 697 3500 
L 697 3744 
Q 697 4328 969 4595 
Q 1241 4863 1831 4863 
L 2375 4863 
z
" transform="scale(0.015625)"/>
        <path id="DejaVuSans-68" d="M 3513 2113 
L 3513 0 
L 2938 0 
L 2938 2094 
Q 2938 2591 2744 2837 
Q 2550 3084 2163 3084 
Q 1697 3084 1428 2787 
Q 1159 2491 1159 1978 
L 1159 0 
L 581 0 
L 581 4863 
L 1159 4863 
L 1159 2956 
Q 1366 3272 1645 3428 
Q 1925 3584 2291 3584 
Q 2894 3584 3203 3211 
Q 3513 2838 3513 2113 
z
" transform="scale(0.015625)"/>
        <path id="DejaVuSans-6c" d="M 603 4863 
L 1178 4863 
L 1178 0 
L 603 0 
L 603 4863 
z
" transform="scale(0.015625)"/>
       </defs>
       <use xlink:href="#DejaVuSans-66"/>
       <use xlink:href="#DejaVuSans-72" x="35.205078"/>
       <use xlink:href="#DejaVuSans-61" x="76.318359"/>
       <use xlink:href="#DejaVuSans-6d" x="137.597656"/>
       <use xlink:href="#DejaVuSans-65" x="235.009766"/>
       <use xlink:href="#DejaVuSans-73" x="296.533203"/>
       <use xlink:href="#DejaVuSans-68" x="348.632812"/>
       <use xlink:href="#DejaVuSans-69" x="412.011719"/>
       <use xlink:href="#DejaVuSans-66" x="439.794922"/>
       <use xlink:href="#DejaVuSans-74" x="473.25"/>
       <use xlink:href="#DejaVuSans-5f" x="512.458984"/>
       <use xlink:href="#DejaVuSans-64" x="562.458984"/>
       <use xlink:href="#DejaVuSans-65" x="625.935547"/>
       <use xlink:href="#DejaVuSans-6c" x="687.458984"/>
       <use xlink:href="#DejaVuSans-65" x="715.242188"/>
       <use xlink:href="#DejaVuSans-74" x="776.765625"/>
       <use xlink:href="#DejaVuSans-69" x="815.974609"/>
       <use xlink:href="#DejaVuSans-6f" x="843.757812"/>
       <use xlink:href="#DejaVuSans-6e" x="904.939453"/>
      </g>
     </g>
    </g>
   </g>
   <g id="matplotlib.axis_2">
    <g id="ytick_1">
     <g id="line2d_14">
      <path d="M 295.4772 290.88 
C 295.4772 290.843598 295.47003 290.807551 295.456099 290.77392 
C 295.442169 290.740289 295.42175 290.70973 295.39601 290.68399 
C 295.37027 290.65825 295.339711 290.637831 295.30608 290.623901 
C 295.272449 290.60997 295.236402 290.6028 295.2 290.6028 
C 295.163598 290.6028 295.127551 290.60997 295.09392 290.623901 
C 295.060289 290.637831 295.02973 290.65825 295.00399 290.68399 
C 294.97825 290.70973 294.957831 290.740289 294.943901 290.77392 
C 294.92997 290.807551 294.9228 290.843598 294.9228 290.88 
C 294.9228 290.916402 294.92997 290.952449 294.943901 290.98608 
C 294.957831 291.019711 294.97825 291.05027 295.00399 291.07601 
C 295.02973 291.10175 295.060289 291.122169 295.09392 291.136099 
C 295.127551 291.15003 295.163598 291.1572 295.2 291.1572 
C 295.236402 291.1572 295.272449 291.15003 295.30608 291.136099 
C 295.339711 291.122169 295.37027 291.10175 295.39601 291.07601 
C 295.42175 291.05027 295.442169 291.019711 295.456099 290.98608 
C 295.47003 290.952449 295.4772 290.916402 295.4772 290.88 
" clip-path="url(#p8d6991403b)" style="fill: none; stroke: #b0b0b0; stroke-width: 0.8; stroke-linecap: square"/>
     </g>
     <g id="text_14">
      <!-- 1 -->
      <g style="fill: #808080" transform="translate(295.440062 288.245775)scale(0.12 -0.12)">
       <defs>
        <path id="DejaVuSans-31" d="M 794 531 
L 1825 531 
L 1825 4091 
L 703 3866 
L 703 4441 
L 1819 4666 
L 2450 4666 
L 2450 531 
L 3481 531 
L 3481 0 
L 794 0 
L 794 531 
z
" transform="scale(0.015625)"/>
       </defs>
       <use xlink:href="#DejaVuSans-31"/>
      </g>
     </g>
    </g>
    <g id="ytick_2">
     <g id="line2d_15">
      <path d="M 295.7544 290.88 
C 295.7544 290.807197 295.740059 290.735102 295.712199 290.66784 
C 295.684338 290.600579 295.6435 290.53946 295.59202 290.48798 
C 295.54054 290.4365 295.479421 290.395662 295.41216 290.367801 
C 295.344898 290.339941 295.272803 290.3256 295.2 290.3256 
C 295.127197 290.3256 295.055102 290.339941 294.98784 290.367801 
C 294.920579 290.395662 294.85946 290.4365 294.80798 290.48798 
C 294.7565 290.53946 294.715662 290.600579 294.687801 290.66784 
C 294.659941 290.735102 294.6456 290.807197 294.6456 290.88 
C 294.6456 290.952803 294.659941 291.024898 294.687801 291.09216 
C 294.715662 291.159421 294.7565 291.22054 294.80798 291.27202 
C 294.85946 291.3235 294.920579 291.364338 294.98784 291.392199 
C 295.055102 291.420059 295.127197 291.4344 295.2 291.4344 
C 295.272803 291.4344 295.344898 291.420059 295.41216 291.392199 
C 295.479421 291.364338 295.54054 291.3235 295.59202 291.27202 
C 295.6435 291.22054 295.684338 291.159421 295.712199 291.09216 
C 295.740059 291.024898 295.7544 290.952803 295.7544 290.88 
" clip-path="url(#p8d6991403b)" style="fill: none; stroke: #b0b0b0; stroke-width: 0.8; stroke-linecap: square"/>
     </g>
     <g id="text_15">
      <!-- 2 -->
      <g style="fill: #808080" transform="translate(295.680124 288.107175)scale(0.12 -0.12)">
       <defs>
        <path id="DejaVuSans-32" d="M 1228 531 
L 3431 531 
L 3431 0 
L 469 0 
L 469 531 
Q 828 903 1448 1529 
Q 2069 2156 2228 2338 
Q 2531 2678 2651 2914 
Q 2772 3150 2772 3378 
Q 2772 3750 2511 3984 
Q 2250 4219 1831 4219 
Q 1534 4219 1204 4116 
Q 875 4013 500 3803 
L 500 4441 
Q 881 4594 1212 4672 
Q 1544 4750 1819 4750 
Q 2544 4750 2975 4387 
Q 3406 4025 3406 3419 
Q 3406 3131 3298 2873 
Q 3191 2616 2906 2266 
Q 2828 2175 2409 1742 
Q 1991 1309 1228 531 
z
" transform="scale(0.015625)"/>
       </defs>
       <use xlink:href="#DejaVuSans-32"/>
      </g>
     </g>
    </g>
    <g id="ytick_3">
     <g id="line2d_16">
      <path d="M 296.0316 290.88 
C 296.0316 290.770795 296.010089 290.662652 295.968298 290.56176 
C 295.926507 290.460868 295.865249 290.369189 295.78803 290.29197 
C 295.710811 290.214751 295.619132 290.153493 295.51824 290.111702 
C 295.417348 290.069911 295.309205 290.0484 295.2 290.0484 
C 295.090795 290.0484 294.982652 290.069911 294.88176 290.111702 
C 294.780868 290.153493 294.689189 290.214751 294.61197 290.29197 
C 294.534751 290.369189 294.473493 290.460868 294.431702 290.56176 
C 294.389911 290.662652 294.3684 290.770795 294.3684 290.88 
C 294.3684 290.989205 294.389911 291.097348 294.431702 291.19824 
C 294.473493 291.299132 294.534751 291.390811 294.61197 291.46803 
C 294.689189 291.545249 294.780868 291.606507 294.88176 291.648298 
C 294.982652 291.690089 295.090795 291.7116 295.2 291.7116 
C 295.309205 291.7116 295.417348 291.690089 295.51824 291.648298 
C 295.619132 291.606507 295.710811 291.545249 295.78803 291.46803 
C 295.865249 291.390811 295.926507 291.299132 295.968298 291.19824 
C 296.010089 291.097348 296.0316 290.989205 296.0316 290.88 
" clip-path="url(#p8d6991403b)" style="fill: none; stroke: #b0b0b0; stroke-width: 0.8; stroke-linecap: square"/>
     </g>
     <g id="text_16">
      <!-- 3 -->
      <g style="fill: #808080" transform="translate(295.920187 287.968575)scale(0.12 -0.12)">
       <use xlink:href="#DejaVuSans-33"/>
      </g>
     </g>
    </g>
    <g id="ytick_4">
     <g id="line2d_17">
      <path d="M 296.3088 290.88 
C 296.3088 290.734394 296.280119 290.590203 296.224398 290.455681 
C 296.168677 290.321158 296.086999 290.198919 295.98404 290.09596 
C 295.881081 289.993001 295.758842 289.911323 295.624319 289.855602 
C 295.489797 289.799881 295.345606 289.7712 295.2 289.7712 
C 295.054394 289.7712 294.910203 289.799881 294.775681 289.855602 
C 294.641158 289.911323 294.518919 289.993001 294.41596 290.09596 
C 294.313001 290.198919 294.231323 290.321158 294.175602 290.455681 
C 294.119881 290.590203 294.0912 290.734394 294.0912 290.88 
C 294.0912 291.025606 294.119881 291.169797 294.175602 291.304319 
C 294.231323 291.438842 294.313001 291.561081 294.41596 291.66404 
C 294.518919 291.766999 294.641158 291.848677 294.775681 291.904398 
C 294.910203 291.960119 295.054394 291.9888 295.2 291.9888 
C 295.345606 291.9888 295.489797 291.960119 295.624319 291.904398 
C 295.758842 291.848677 295.881081 291.766999 295.98404 291.66404 
C 296.086999 291.561081 296.168677 291.438842 296.224398 291.304319 
C 296.280119 291.169797 296.3088 291.025606 296.3088 290.88 
" clip-path="url(#p8d6991403b)" style="fill: none; stroke: #b0b0b0; stroke-width: 0.8; stroke-linecap: square"/>
     </g>
     <g id="text_17">
      <!-- 4 -->
      <g style="fill: #808080" transform="translate(296.160249 287.829975)scale(0.12 -0.12)">
       <defs>
        <path id="DejaVuSans-34" d="M 2419 4116 
L 825 1625 
L 2419 1625 
L 2419 4116 
z
M 2253 4666 
L 3047 4666 
L 3047 1625 
L 3713 1625 
L 3713 1100 
L 3047 1100 
L 3047 0 
L 2419 0 
L 2419 1100 
L 313 1100 
L 313 1709 
L 2253 4666 
z
" transform="scale(0.015625)"/>
       </defs>
       <use xlink:href="#DejaVuSans-34"/>
      </g>
     </g>
    </g>
    <g id="ytick_5">
     <g id="line2d_18">
      <path d="M 296.586 290.88 
C 296.586 290.697992 296.550148 290.517754 296.480497 290.349601 
C 296.410846 290.181447 296.308749 290.028649 296.18005 289.89995 
C 296.051351 289.771251 295.898553 289.669154 295.730399 289.599503 
C 295.562246 289.529852 295.382008 289.494 295.2 289.494 
C 295.017992 289.494 294.837754 289.529852 294.669601 289.599503 
C 294.501447 289.669154 294.348649 289.771251 294.21995 289.89995 
C 294.091251 290.028649 293.989154 290.181447 293.919503 290.349601 
C 293.849852 290.517754 293.814 290.697992 293.814 290.88 
C 293.814 291.062008 293.849852 291.242246 293.919503 291.410399 
C 293.989154 291.578553 294.091251 291.731351 294.21995 291.86005 
C 294.348649 291.988749 294.501447 292.090846 294.669601 292.160497 
C 294.837754 292.230148 295.017992 292.266 295.2 292.266 
C 295.382008 292.266 295.562246 292.230148 295.730399 292.160497 
C 295.898553 292.090846 296.051351 291.988749 296.18005 291.86005 
C 296.308749 291.731351 296.410846 291.578553 296.480497 291.410399 
C 296.550148 291.242246 296.586 291.062008 296.586 290.88 
" clip-path="url(#p8d6991403b)" style="fill: none; stroke: #b0b0b0; stroke-width: 0.8; stroke-linecap: square"/>
     </g>
     <g id="text_18">
      <!-- 5 -->
      <g style="fill: #808080" transform="translate(296.400311 287.691375)scale(0.12 -0.12)">
       <use xlink:href="#DejaVuSans-35"/>
      </g>
     </g>
    </g>
   </g>
   <g id="line2d_19">
    <path d="M 308.7828 290.88 
L 297.899933 289.462966 
L 299.294156 284.948591 
L 295.734604 286.477138 
L 295.2 290.88 
L 294.370051 290.14473 
L 293.58513 290.48197 
L 294.392565 291.079015 
L 281.505846 303.011962 
L 292.742588 297.359663 
L 295.935081 296.933936 
L 295.514935 291.336262 
L 295.2 290.88 
L 308.7828 290.88 
" clip-path="url(#p8d6991403b)" style="fill: none; stroke: #1f77b4; stroke-linecap: square"/>
   </g>
   <g id="line2d_20">
    <path d="M 304.3476 290.88 
L 295.936345 290.493536 
L 297.404546 287.686164 
L 295.500715 288.40339 
L 295.101704 290.620813 
L 293.955077 289.777094 
L 294.930855 290.813662 
L 294.66171 291.012677 
L 287.730462 297.497434 
L 294.118739 293.731052 
L 295.868255 296.383578 
L 295.514935 291.336262 
L 295.2 290.88 
L 304.3476 290.88 
" clip-path="url(#p8d6991403b)" style="fill: none; stroke: #ff7f0e; stroke-linecap: square"/>
   </g>
   <g id="patch_5">
    <path d="M 516.96 290.88 
C 516.96 261.758744 511.223747 232.920655 500.079525 206.016122 
C 488.935303 179.111589 472.599838 154.663838 452.008 134.072 
C 431.416162 113.480162 406.968411 97.144697 380.063878 86.000475 
C 353.159345 74.856253 324.321256 69.12 295.2 69.12 
C 266.078744 69.12 237.240655 74.856253 210.336122 86.000475 
C 183.431589 97.144697 158.983838 113.480162 138.392 134.072 
C 117.800162 154.663838 101.464697 179.111589 90.320475 206.016122 
C 79.176253 232.920655 73.44 261.758744 73.44 290.88 
C 73.44 320.001256 79.176253 348.839345 90.320475 375.743878 
C 101.464697 402.648411 117.800162 427.096162 138.392 447.688 
C 158.983838 468.279838 183.431589 484.615303 210.336122 495.759525 
C 237.240655 506.903747 266.078744 512.64 295.2 512.64 
C 324.321256 512.64 353.159345 506.903747 380.063878 495.759525 
C 406.968411 484.615303 431.416162 468.279838 452.008 447.688 
C 472.599838 427.096162 488.935303 402.648411 500.079525 375.743878 
C 511.223747 348.839345 516.96 320.001256 516.96 290.88 
" style="fill: none; stroke: #000000; stroke-width: 0.8; stroke-linejoin: miter; stroke-linecap: square"/>
   </g>
   <g id="legend_1">
    <g id="patch_6">
     <path d="M -15.812688 506.2005 
L 110.792 506.2005 
Q 112.792 506.2005 112.792 504.2005 
L 112.792 475.288 
Q 112.792 473.288 110.792 473.288 
L -15.812688 473.288 
Q -17.812688 473.288 -17.812688 475.288 
L -17.812688 504.2005 
Q -17.812688 506.2005 -15.812688 506.2005 
z
" style="fill: #ffffff; opacity: 0.8; stroke: #cccccc; stroke-linejoin: miter"/>
    </g>
    <g id="line2d_21">
     <path d="M -1 481.386437 
L 6.187312 481.386437 
" style="fill: none; stroke: #1f77b4; stroke-linecap: square"/>
    </g>
    <g id="text_19">
     <!-- Test_3_Fisher_p-fdr -->
     <g transform="translate(14.187312 484.886437)scale(0.1 -0.1)">
      <defs>
       <path id="DejaVuSans-46" d="M 628 4666 
L 3309 4666 
L 3309 4134 
L 1259 4134 
L 1259 2759 
L 3109 2759 
L 3109 2228 
L 1259 2228 
L 1259 0 
L 628 0 
L 628 4666 
z
" transform="scale(0.015625)"/>
       <path id="DejaVuSans-2d" d="M 313 2009 
L 1997 2009 
L 1997 1497 
L 313 1497 
L 313 2009 
z
" transform="scale(0.015625)"/>
      </defs>
      <use xlink:href="#DejaVuSans-54"/>
      <use xlink:href="#DejaVuSans-65" x="44.083984"/>
      <use xlink:href="#DejaVuSans-73" x="105.607422"/>
      <use xlink:href="#DejaVuSans-74" x="157.707031"/>
      <use xlink:href="#DejaVuSans-5f" x="196.916016"/>
      <use xlink:href="#DejaVuSans-33" x="246.916016"/>
      <use xlink:href="#DejaVuSans-5f" x="310.539062"/>
      <use xlink:href="#DejaVuSans-46" x="360.539062"/>
      <use xlink:href="#DejaVuSans-69" x="410.808594"/>
      <use xlink:href="#DejaVuSans-73" x="438.591797"/>
      <use xlink:href="#DejaVuSans-68" x="490.691406"/>
      <use xlink:href="#DejaVuSans-65" x="554.070312"/>
      <use xlink:href="#DejaVuSans-72" x="615.59375"/>
      <use xlink:href="#DejaVuSans-5f" x="656.707031"/>
      <use xlink:href="#DejaVuSans-70" x="706.707031"/>
      <use xlink:href="#DejaVuSans-2d" x="770.183594"/>
      <use xlink:href="#DejaVuSans-66" x="806.267578"/>
      <use xlink:href="#DejaVuSans-64" x="841.472656"/>
      <use xlink:href="#DejaVuSans-72" x="904.949219"/>
     </g>
    </g>
    <g id="line2d_22">
     <path d="M -1 496.342688 
L 6.187312 496.342688 
" style="fill: none; stroke: #ff7f0e; stroke-linecap: square"/>
    </g>
    <g id="text_20">
     <!-- Test_4_Fisher_p-fdr -->
     <g transform="translate(14.187312 499.842688)scale(0.1 -0.1)">
      <use xlink:href="#DejaVuSans-54"/>
      <use xlink:href="#DejaVuSans-65" x="44.083984"/>
      <use xlink:href="#DejaVuSans-73" x="105.607422"/>
      <use xlink:href="#DejaVuSans-74" x="157.707031"/>
      <use xlink:href="#DejaVuSans-5f" x="196.916016"/>
      <use xlink:href="#DejaVuSans-34" x="246.916016"/>
      <use xlink:href="#DejaVuSans-5f" x="310.539062"/>
      <use xlink:href="#DejaVuSans-46" x="360.539062"/>
      <use xlink:href="#DejaVuSans-69" x="410.808594"/>
      <use xlink:href="#DejaVuSans-73" x="438.591797"/>
      <use xlink:href="#DejaVuSans-68" x="490.691406"/>
      <use xlink:href="#DejaVuSans-65" x="554.070312"/>
      <use xlink:href="#DejaVuSans-72" x="615.59375"/>
      <use xlink:href="#DejaVuSans-5f" x="656.707031"/>
      <use xlink:href="#DejaVuSans-70" x="706.707031"/>
      <use xlink:href="#DejaVuSans-2d" x="770.183594"/>
      <use xlink:href="#DejaVuSans-66" x="806.267578"/>
      <use xlink:href="#DejaVuSans-64" x="841.472656"/>
      <use xlink:href="#DejaVuSans-72" x="904.949219"/>
     </g>
    </g>
   </g>
  </g>
 </g>
 <defs>
  <clipPath id="p8d6991403b">
   <path d="M 516.96 290.88 
C 516.96 261.758744 511.223747 232.920655 500.079525 206.016122 
C 488.935303 179.111589 472.599838 154.663838 452.008 134.072 
C 431.416162 113.480162 406.968411 97.144697 380.063878 86.000475 
C 353.159345 74.856253 324.321256 69.12 295.2 69.12 
C 266.078744 69.12 237.240655 74.856253 210.336122 86.000475 
C 183.431589 97.144697 158.983838 113.480162 138.392 134.072 
C 117.800162 154.663838 101.464697 179.111589 90.320475 206.016122 
C 79.176253 232.920655 73.44 261.758744 73.44 290.88 
C 73.44 320.001256 79.176253 348.839345 90.320475 375.743878 
C 101.464697 402.648411 117.800162 427.096162 138.392 447.688 
C 158.983838 468.279838 183.431589 484.615303 210.336122 495.759525 
C 237.240655 506.903747 266.078744 512.64 295.2 512.64 
C 324.321256 512.64 353.159345 506.903747 380.063878 495.759525 
C 406.968411 484.615303 431.416162 468.279838 452.008 447.688 
C 472.599838 427.096162 488.935303 402.648411 500.079525 375.743878 
C 511.223747 348.839345 516.96 320.001256 516.96 290.88 
M 295.2 290.88 
C 295.2 290.88 295.2 290.88 295.2 290.88 
C 295.2 290.88 295.2 290.88 295.2 290.88 
C 295.2 290.88 295.2 290.88 295.2 290.88 
C 295.2 290.88 295.2 290.88 295.2 290.88 
C 295.2 290.88 295.2 290.88 295.2 290.88 
C 295.2 290.88 295.2 290.88 295.2 290.88 
C 295.2 290.88 295.2 290.88 295.2 290.88 
C 295.2 290.88 295.2 290.88 295.2 290.88 
C 295.2 290.88 295.2 290.88 295.2 290.88 
C 295.2 290.88 295.2 290.88 295.2 290.88 
C 295.2 290.88 295.2 290.88 295.2 290.88 
C 295.2 290.88 295.2 290.88 295.2 290.88 
C 295.2 290.88 295.2 290.88 295.2 290.88 
C 295.2 290.88 295.2 290.88 295.2 290.88 
C 295.2 290.88 295.2 290.88 295.2 290.88 
C 295.2 290.88 295.2 290.88 295.2 290.88 
M 516.96 290.88 
z
"/>
  </clipPath>
 </defs>
</svg>
