<?xml version="1.0" encoding="utf-8" standalone="no"?>
<!DOCTYPE svg PUBLIC "-//W3C//DTD SVG 1.1//EN"
  "http://www.w3.org/Graphics/SVG/1.1/DTD/svg11.dtd">
<svg xmlns:xlink="http://www.w3.org/1999/xlink" width="576pt" height="576pt" viewBox="0 0 576 576" xmlns="http://www.w3.org/2000/svg" version="1.1">
 <metadata>
  <rdf:RDF xmlns:dc="http://purl.org/dc/elements/1.1/" xmlns:cc="http://creativecommons.org/ns#" xmlns:rdf="http://www.w3.org/1999/02/22-rdf-syntax-ns#">
   <cc:Work>
    <dc:type rdf:resource="http://purl.org/dc/dcmitype/StillImage"/>
    <dc:date>2023-01-16T14:47:22.293913</dc:date>
    <dc:format>image/svg+xml</dc:format>
    <dc:creator>
     <cc:Agent>
      <dc:title>Matplotlib v3.5.3, https://matplotlib.org/</dc:title>
     </cc:Agent>
    </dc:creator>
   </cc:Work>
  </rdf:RDF>
 </metadata>
 <defs>
  <style type="text/css">*{stroke-linejoin: round; stroke-linecap: butt}</style>
 </defs>
 <g id="figure_1">
  <g id="patch_1">
   <path d="M 0 576 
L 576 576 
L 576 0 
L 0 0 
z
" style="fill: #ffffff"/>
  </g>
  <g id="axes_1">
   <g id="patch_2">
    <path d="M 516.96 290.88 
C 516.96 261.758744 511.223747 232.920655 500.079525 206.016122 
C 488.935303 179.111589 472.599838 154.663838 452.008 134.072 
C 431.416162 113.480162 406.968411 97.144697 380.063878 86.000475 
C 353.159345 74.856253 324.321256 69.12 295.2 69.12 
C 266.078744 69.12 237.240655 74.856253 210.336122 86.000475 
C 183.431589 97.144697 158.983838 113.480162 138.392 134.072 
C 117.800162 154.663838 101.464697 179.111589 90.320475 206.016122 
C 79.176253 232.920655 73.44 261.758744 73.44 290.88 
C 73.44 320.001256 79.176253 348.839345 90.320475 375.743878 
C 101.464697 402.648411 117.800162 427.096162 138.392 447.688 
C 158.983838 468.279838 183.431589 484.615303 210.336122 495.759525 
C 237.240655 506.903747 266.078744 512.64 295.2 512.64 
C 324.321256 512.64 353.159345 506.903747 380.063878 495.759525 
C 406.968411 484.615303 431.416162 468.279838 452.008 447.688 
C 472.599838 427.096162 488.935303 402.648411 500.079525 375.743878 
C 511.223747 348.839345 516.96 320.001256 516.96 290.88 
M 295.2 290.88 
C 295.2 290.88 295.2 290.88 295.2 290.88 
C 295.2 290.88 295.2 290.88 295.2 290.88 
C 295.2 290.88 295.2 290.88 295.2 290.88 
C 295.2 290.88 295.2 290.88 295.2 290.88 
C 295.2 290.88 295.2 290.88 295.2 290.88 
C 295.2 290.88 295.2 290.88 295.2 290.88 
C 295.2 290.88 295.2 290.88 295.2 290.88 
C 295.2 290.88 295.2 290.88 295.2 290.88 
C 295.2 290.88 295.2 290.88 295.2 290.88 
C 295.2 290.88 295.2 290.88 295.2 290.88 
C 295.2 290.88 295.2 290.88 295.2 290.88 
C 295.2 290.88 295.2 290.88 295.2 290.88 
C 295.2 290.88 295.2 290.88 295.2 290.88 
C 295.2 290.88 295.2 290.88 295.2 290.88 
C 295.2 290.88 295.2 290.88 295.2 290.88 
C 295.2 290.88 295.2 290.88 295.2 290.88 
M 516.96 290.88 
z
" style="fill: #ffffff"/>
   </g>
   <g id="patch_3">
    <path d="M 296.3088 290.88 
L 295.2 290.88 
z
" clip-path="url(#pf5bfe995fe)" style="fill: #1f77b4; opacity: 0.4"/>
   </g>
   <g id="patch_4">
    <path d="M 295.2 290.88 
L 294.0912 290.88 
z
" clip-path="url(#pf5bfe995fe)" style="fill: #ff7f0e; opacity: 0.4"/>
   </g>
   <g id="patch_5">
    <path d="M 296.3088 290.88 
L 295.2 290.88 
z
" clip-path="url(#pf5bfe995fe)" style="fill: #2ca02c; opacity: 0.4"/>
   </g>
   <g id="patch_6">
    <path d="M 296.3088 290.88 
L 295.2 290.88 
z
" clip-path="url(#pf5bfe995fe)" style="fill: #d62728; opacity: 0.4"/>
   </g>
   <g id="matplotlib.axis_1">
    <g id="xtick_1">
     <g id="line2d_1">
      <path d="M 295.2 290.88 
L 516.96 290.88 
" clip-path="url(#pf5bfe995fe)" style="fill: none; stroke: #b0b0b0; stroke-width: 0.8; stroke-linecap: square"/>
     </g>
     <g id="text_1">
      <!-- stopgain -->
      <g style="fill: #808080" transform="translate(505.046563 294.19125)scale(0.12 -0.12)">
       <defs>
        <path id="DejaVuSans-73" d="M 2834 3397 
L 2834 2853 
Q 2591 2978 2328 3040 
Q 2066 3103 1784 3103 
Q 1356 3103 1142 2972 
Q 928 2841 928 2578 
Q 928 2378 1081 2264 
Q 1234 2150 1697 2047 
L 1894 2003 
Q 2506 1872 2764 1633 
Q 3022 1394 3022 966 
Q 3022 478 2636 193 
Q 2250 -91 1575 -91 
Q 1294 -91 989 -36 
Q 684 19 347 128 
L 347 722 
Q 666 556 975 473 
Q 1284 391 1588 391 
Q 1994 391 2212 530 
Q 2431 669 2431 922 
Q 2431 1156 2273 1281 
Q 2116 1406 1581 1522 
L 1381 1569 
Q 847 1681 609 1914 
Q 372 2147 372 2553 
Q 372 3047 722 3315 
Q 1072 3584 1716 3584 
Q 2034 3584 2315 3537 
Q 2597 3491 2834 3397 
z
" transform="scale(0.015625)"/>
        <path id="DejaVuSans-74" d="M 1172 4494 
L 1172 3500 
L 2356 3500 
L 2356 3053 
L 1172 3053 
L 1172 1153 
Q 1172 725 1289 603 
Q 1406 481 1766 481 
L 2356 481 
L 2356 0 
L 1766 0 
Q 1100 0 847 248 
Q 594 497 594 1153 
L 594 3053 
L 172 3053 
L 172 3500 
L 594 3500 
L 594 4494 
L 1172 4494 
z
" transform="scale(0.015625)"/>
        <path id="DejaVuSans-6f" d="M 1959 3097 
Q 1497 3097 1228 2736 
Q 959 2375 959 1747 
Q 959 1119 1226 758 
Q 1494 397 1959 397 
Q 2419 397 2687 759 
Q 2956 1122 2956 1747 
Q 2956 2369 2687 2733 
Q 2419 3097 1959 3097 
z
M 1959 3584 
Q 2709 3584 3137 3096 
Q 3566 2609 3566 1747 
Q 3566 888 3137 398 
Q 2709 -91 1959 -91 
Q 1206 -91 779 398 
Q 353 888 353 1747 
Q 353 2609 779 3096 
Q 1206 3584 1959 3584 
z
" transform="scale(0.015625)"/>
        <path id="DejaVuSans-70" d="M 1159 525 
L 1159 -1331 
L 581 -1331 
L 581 3500 
L 1159 3500 
L 1159 2969 
Q 1341 3281 1617 3432 
Q 1894 3584 2278 3584 
Q 2916 3584 3314 3078 
Q 3713 2572 3713 1747 
Q 3713 922 3314 415 
Q 2916 -91 2278 -91 
Q 1894 -91 1617 61 
Q 1341 213 1159 525 
z
M 3116 1747 
Q 3116 2381 2855 2742 
Q 2594 3103 2138 3103 
Q 1681 3103 1420 2742 
Q 1159 2381 1159 1747 
Q 1159 1113 1420 752 
Q 1681 391 2138 391 
Q 2594 391 2855 752 
Q 3116 1113 3116 1747 
z
" transform="scale(0.015625)"/>
        <path id="DejaVuSans-67" d="M 2906 1791 
Q 2906 2416 2648 2759 
Q 2391 3103 1925 3103 
Q 1463 3103 1205 2759 
Q 947 2416 947 1791 
Q 947 1169 1205 825 
Q 1463 481 1925 481 
Q 2391 481 2648 825 
Q 2906 1169 2906 1791 
z
M 3481 434 
Q 3481 -459 3084 -895 
Q 2688 -1331 1869 -1331 
Q 1566 -1331 1297 -1286 
Q 1028 -1241 775 -1147 
L 775 -588 
Q 1028 -725 1275 -790 
Q 1522 -856 1778 -856 
Q 2344 -856 2625 -561 
Q 2906 -266 2906 331 
L 2906 616 
Q 2728 306 2450 153 
Q 2172 0 1784 0 
Q 1141 0 747 490 
Q 353 981 353 1791 
Q 353 2603 747 3093 
Q 1141 3584 1784 3584 
Q 2172 3584 2450 3431 
Q 2728 3278 2906 2969 
L 2906 3500 
L 3481 3500 
L 3481 434 
z
" transform="scale(0.015625)"/>
        <path id="DejaVuSans-61" d="M 2194 1759 
Q 1497 1759 1228 1600 
Q 959 1441 959 1056 
Q 959 750 1161 570 
Q 1363 391 1709 391 
Q 2188 391 2477 730 
Q 2766 1069 2766 1631 
L 2766 1759 
L 2194 1759 
z
M 3341 1997 
L 3341 0 
L 2766 0 
L 2766 531 
Q 2569 213 2275 61 
Q 1981 -91 1556 -91 
Q 1019 -91 701 211 
Q 384 513 384 1019 
Q 384 1609 779 1909 
Q 1175 2209 1959 2209 
L 2766 2209 
L 2766 2266 
Q 2766 2663 2505 2880 
Q 2244 3097 1772 3097 
Q 1472 3097 1187 3025 
Q 903 2953 641 2809 
L 641 3341 
Q 956 3463 1253 3523 
Q 1550 3584 1831 3584 
Q 2591 3584 2966 3190 
Q 3341 2797 3341 1997 
z
" transform="scale(0.015625)"/>
        <path id="DejaVuSans-69" d="M 603 3500 
L 1178 3500 
L 1178 0 
L 603 0 
L 603 3500 
z
M 603 4863 
L 1178 4863 
L 1178 4134 
L 603 4134 
L 603 4863 
z
" transform="scale(0.015625)"/>
        <path id="DejaVuSans-6e" d="M 3513 2113 
L 3513 0 
L 2938 0 
L 2938 2094 
Q 2938 2591 2744 2837 
Q 2550 3084 2163 3084 
Q 1697 3084 1428 2787 
Q 1159 2491 1159 1978 
L 1159 0 
L 581 0 
L 581 3500 
L 1159 3500 
L 1159 2956 
Q 1366 3272 1645 3428 
Q 1925 3584 2291 3584 
Q 2894 3584 3203 3211 
Q 3513 2838 3513 2113 
z
" transform="scale(0.015625)"/>
       </defs>
       <use xlink:href="#DejaVuSans-73"/>
       <use xlink:href="#DejaVuSans-74" x="52.099609"/>
       <use xlink:href="#DejaVuSans-6f" x="91.308594"/>
       <use xlink:href="#DejaVuSans-70" x="152.490234"/>
       <use xlink:href="#DejaVuSans-67" x="215.966797"/>
       <use xlink:href="#DejaVuSans-61" x="279.443359"/>
       <use xlink:href="#DejaVuSans-69" x="340.722656"/>
       <use xlink:href="#DejaVuSans-6e" x="368.505859"/>
      </g>
     </g>
    </g>
    <g id="xtick_2">
     <g id="line2d_2">
      <path d="M 295.2 290.88 
L 73.44 290.88 
" clip-path="url(#pf5bfe995fe)" style="fill: none; stroke: #b0b0b0; stroke-width: 0.8; stroke-linecap: square"/>
     </g>
     <g id="text_2">
      <!-- frameshift_deletion -->
      <g style="fill: #808080" transform="translate(1.34125 294.024375)scale(0.12 -0.12)">
       <defs>
        <path id="DejaVuSans-66" d="M 2375 4863 
L 2375 4384 
L 1825 4384 
Q 1516 4384 1395 4259 
Q 1275 4134 1275 3809 
L 1275 3500 
L 2222 3500 
L 2222 3053 
L 1275 3053 
L 1275 0 
L 697 0 
L 697 3053 
L 147 3053 
L 147 3500 
L 697 3500 
L 697 3744 
Q 697 4328 969 4595 
Q 1241 4863 1831 4863 
L 2375 4863 
z
" transform="scale(0.015625)"/>
        <path id="DejaVuSans-72" d="M 2631 2963 
Q 2534 3019 2420 3045 
Q 2306 3072 2169 3072 
Q 1681 3072 1420 2755 
Q 1159 2438 1159 1844 
L 1159 0 
L 581 0 
L 581 3500 
L 1159 3500 
L 1159 2956 
Q 1341 3275 1631 3429 
Q 1922 3584 2338 3584 
Q 2397 3584 2469 3576 
Q 2541 3569 2628 3553 
L 2631 2963 
z
" transform="scale(0.015625)"/>
        <path id="DejaVuSans-6d" d="M 3328 2828 
Q 3544 3216 3844 3400 
Q 4144 3584 4550 3584 
Q 5097 3584 5394 3201 
Q 5691 2819 5691 2113 
L 5691 0 
L 5113 0 
L 5113 2094 
Q 5113 2597 4934 2840 
Q 4756 3084 4391 3084 
Q 3944 3084 3684 2787 
Q 3425 2491 3425 1978 
L 3425 0 
L 2847 0 
L 2847 2094 
Q 2847 2600 2669 2842 
Q 2491 3084 2119 3084 
Q 1678 3084 1418 2786 
Q 1159 2488 1159 1978 
L 1159 0 
L 581 0 
L 581 3500 
L 1159 3500 
L 1159 2956 
Q 1356 3278 1631 3431 
Q 1906 3584 2284 3584 
Q 2666 3584 2933 3390 
Q 3200 3197 3328 2828 
z
" transform="scale(0.015625)"/>
        <path id="DejaVuSans-65" d="M 3597 1894 
L 3597 1613 
L 953 1613 
Q 991 1019 1311 708 
Q 1631 397 2203 397 
Q 2534 397 2845 478 
Q 3156 559 3463 722 
L 3463 178 
Q 3153 47 2828 -22 
Q 2503 -91 2169 -91 
Q 1331 -91 842 396 
Q 353 884 353 1716 
Q 353 2575 817 3079 
Q 1281 3584 2069 3584 
Q 2775 3584 3186 3129 
Q 3597 2675 3597 1894 
z
M 3022 2063 
Q 3016 2534 2758 2815 
Q 2500 3097 2075 3097 
Q 1594 3097 1305 2825 
Q 1016 2553 972 2059 
L 3022 2063 
z
" transform="scale(0.015625)"/>
        <path id="DejaVuSans-68" d="M 3513 2113 
L 3513 0 
L 2938 0 
L 2938 2094 
Q 2938 2591 2744 2837 
Q 2550 3084 2163 3084 
Q 1697 3084 1428 2787 
Q 1159 2491 1159 1978 
L 1159 0 
L 581 0 
L 581 4863 
L 1159 4863 
L 1159 2956 
Q 1366 3272 1645 3428 
Q 1925 3584 2291 3584 
Q 2894 3584 3203 3211 
Q 3513 2838 3513 2113 
z
" transform="scale(0.015625)"/>
        <path id="DejaVuSans-5f" d="M 3263 -1063 
L 3263 -1509 
L -63 -1509 
L -63 -1063 
L 3263 -1063 
z
" transform="scale(0.015625)"/>
        <path id="DejaVuSans-64" d="M 2906 2969 
L 2906 4863 
L 3481 4863 
L 3481 0 
L 2906 0 
L 2906 525 
Q 2725 213 2448 61 
Q 2172 -91 1784 -91 
Q 1150 -91 751 415 
Q 353 922 353 1747 
Q 353 2572 751 3078 
Q 1150 3584 1784 3584 
Q 2172 3584 2448 3432 
Q 2725 3281 2906 2969 
z
M 947 1747 
Q 947 1113 1208 752 
Q 1469 391 1925 391 
Q 2381 391 2643 752 
Q 2906 1113 2906 1747 
Q 2906 2381 2643 2742 
Q 2381 3103 1925 3103 
Q 1469 3103 1208 2742 
Q 947 2381 947 1747 
z
" transform="scale(0.015625)"/>
        <path id="DejaVuSans-6c" d="M 603 4863 
L 1178 4863 
L 1178 0 
L 603 0 
L 603 4863 
z
" transform="scale(0.015625)"/>
       </defs>
       <use xlink:href="#DejaVuSans-66"/>
       <use xlink:href="#DejaVuSans-72" x="35.205078"/>
       <use xlink:href="#DejaVuSans-61" x="76.318359"/>
       <use xlink:href="#DejaVuSans-6d" x="137.597656"/>
       <use xlink:href="#DejaVuSans-65" x="235.009766"/>
       <use xlink:href="#DejaVuSans-73" x="296.533203"/>
       <use xlink:href="#DejaVuSans-68" x="348.632812"/>
       <use xlink:href="#DejaVuSans-69" x="412.011719"/>
       <use xlink:href="#DejaVuSans-66" x="439.794922"/>
       <use xlink:href="#DejaVuSans-74" x="473.25"/>
       <use xlink:href="#DejaVuSans-5f" x="512.458984"/>
       <use xlink:href="#DejaVuSans-64" x="562.458984"/>
       <use xlink:href="#DejaVuSans-65" x="625.935547"/>
       <use xlink:href="#DejaVuSans-6c" x="687.458984"/>
       <use xlink:href="#DejaVuSans-65" x="715.242188"/>
       <use xlink:href="#DejaVuSans-74" x="776.765625"/>
       <use xlink:href="#DejaVuSans-69" x="815.974609"/>
       <use xlink:href="#DejaVuSans-6f" x="843.757812"/>
       <use xlink:href="#DejaVuSans-6e" x="904.939453"/>
      </g>
     </g>
    </g>
   </g>
   <g id="matplotlib.axis_2">
    <g id="ytick_1">
     <g id="line2d_3">
      <path d="M 295.7544 290.88 
C 295.7544 290.807197 295.740059 290.735102 295.712199 290.66784 
C 295.684338 290.600579 295.6435 290.53946 295.59202 290.48798 
C 295.54054 290.4365 295.479421 290.395662 295.41216 290.367801 
C 295.344898 290.339941 295.272803 290.3256 295.2 290.3256 
C 295.127197 290.3256 295.055102 290.339941 294.98784 290.367801 
C 294.920579 290.395662 294.85946 290.4365 294.80798 290.48798 
C 294.7565 290.53946 294.715662 290.600579 294.687801 290.66784 
C 294.659941 290.735102 294.6456 290.807197 294.6456 290.88 
C 294.6456 290.952803 294.659941 291.024898 294.687801 291.09216 
C 294.715662 291.159421 294.7565 291.22054 294.80798 291.27202 
C 294.85946 291.3235 294.920579 291.364338 294.98784 291.392199 
C 295.055102 291.420059 295.127197 291.4344 295.2 291.4344 
C 295.272803 291.4344 295.344898 291.420059 295.41216 291.392199 
C 295.479421 291.364338 295.54054 291.3235 295.59202 291.27202 
C 295.6435 291.22054 295.684338 291.159421 295.712199 291.09216 
C 295.740059 291.024898 295.7544 290.952803 295.7544 290.88 
" clip-path="url(#pf5bfe995fe)" style="fill: none; stroke: #b0b0b0; stroke-width: 0.8; stroke-linecap: square"/>
     </g>
     <g id="text_3">
      <!-- 1 -->
      <g style="fill: #808080" transform="translate(295.680124 288.107175)scale(0.12 -0.12)">
       <defs>
        <path id="DejaVuSans-31" d="M 794 531 
L 1825 531 
L 1825 4091 
L 703 3866 
L 703 4441 
L 1819 4666 
L 2450 4666 
L 2450 531 
L 3481 531 
L 3481 0 
L 794 0 
L 794 531 
z
" transform="scale(0.015625)"/>
       </defs>
       <use xlink:href="#DejaVuSans-31"/>
      </g>
     </g>
    </g>
    <g id="ytick_2">
     <g id="line2d_4">
      <path d="M 296.3088 290.88 
C 296.3088 290.734394 296.280119 290.590203 296.224398 290.455681 
C 296.168677 290.321158 296.086999 290.198919 295.98404 290.09596 
C 295.881081 289.993001 295.758842 289.911323 295.624319 289.855602 
C 295.489797 289.799881 295.345606 289.7712 295.2 289.7712 
C 295.054394 289.7712 294.910203 289.799881 294.775681 289.855602 
C 294.641158 289.911323 294.518919 289.993001 294.41596 290.09596 
C 294.313001 290.198919 294.231323 290.321158 294.175602 290.455681 
C 294.119881 290.590203 294.0912 290.734394 294.0912 290.88 
C 294.0912 291.025606 294.119881 291.169797 294.175602 291.304319 
C 294.231323 291.438842 294.313001 291.561081 294.41596 291.66404 
C 294.518919 291.766999 294.641158 291.848677 294.775681 291.904398 
C 294.910203 291.960119 295.054394 291.9888 295.2 291.9888 
C 295.345606 291.9888 295.489797 291.960119 295.624319 291.904398 
C 295.758842 291.848677 295.881081 291.766999 295.98404 291.66404 
C 296.086999 291.561081 296.168677 291.438842 296.224398 291.304319 
C 296.280119 291.169797 296.3088 291.025606 296.3088 290.88 
" clip-path="url(#pf5bfe995fe)" style="fill: none; stroke: #b0b0b0; stroke-width: 0.8; stroke-linecap: square"/>
     </g>
     <g id="text_4">
      <!-- 2 -->
      <g style="fill: #808080" transform="translate(296.160249 287.829975)scale(0.12 -0.12)">
       <defs>
        <path id="DejaVuSans-32" d="M 1228 531 
L 3431 531 
L 3431 0 
L 469 0 
L 469 531 
Q 828 903 1448 1529 
Q 2069 2156 2228 2338 
Q 2531 2678 2651 2914 
Q 2772 3150 2772 3378 
Q 2772 3750 2511 3984 
Q 2250 4219 1831 4219 
Q 1534 4219 1204 4116 
Q 875 4013 500 3803 
L 500 4441 
Q 881 4594 1212 4672 
Q 1544 4750 1819 4750 
Q 2544 4750 2975 4387 
Q 3406 4025 3406 3419 
Q 3406 3131 3298 2873 
Q 3191 2616 2906 2266 
Q 2828 2175 2409 1742 
Q 1991 1309 1228 531 
z
" transform="scale(0.015625)"/>
       </defs>
       <use xlink:href="#DejaVuSans-32"/>
      </g>
     </g>
    </g>
    <g id="ytick_3">
     <g id="line2d_5">
      <path d="M 296.8632 290.88 
C 296.8632 290.661591 296.820178 290.445305 296.736596 290.243521 
C 296.653015 290.041737 296.530499 289.858379 296.37606 289.70394 
C 296.221621 289.549501 296.038263 289.426985 295.836479 289.343404 
C 295.634695 289.259822 295.418409 289.2168 295.2 289.2168 
C 294.981591 289.2168 294.765305 289.259822 294.563521 289.343404 
C 294.361737 289.426985 294.178379 289.549501 294.02394 289.70394 
C 293.869501 289.858379 293.746985 290.041737 293.663404 290.243521 
C 293.579822 290.445305 293.5368 290.661591 293.5368 290.88 
C 293.5368 291.098409 293.579822 291.314695 293.663404 291.516479 
C 293.746985 291.718263 293.869501 291.901621 294.02394 292.05606 
C 294.178379 292.210499 294.361737 292.333015 294.563521 292.416596 
C 294.765305 292.500178 294.981591 292.5432 295.2 292.5432 
C 295.418409 292.5432 295.634695 292.500178 295.836479 292.416596 
C 296.038263 292.333015 296.221621 292.210499 296.37606 292.05606 
C 296.530499 291.901621 296.653015 291.718263 296.736596 291.516479 
C 296.820178 291.314695 296.8632 291.098409 296.8632 290.88 
" clip-path="url(#pf5bfe995fe)" style="fill: none; stroke: #b0b0b0; stroke-width: 0.8; stroke-linecap: square"/>
     </g>
     <g id="text_5">
      <!-- 3 -->
      <g style="fill: #808080" transform="translate(296.640373 287.552775)scale(0.12 -0.12)">
       <defs>
        <path id="DejaVuSans-33" d="M 2597 2516 
Q 3050 2419 3304 2112 
Q 3559 1806 3559 1356 
Q 3559 666 3084 287 
Q 2609 -91 1734 -91 
Q 1441 -91 1130 -33 
Q 819 25 488 141 
L 488 750 
Q 750 597 1062 519 
Q 1375 441 1716 441 
Q 2309 441 2620 675 
Q 2931 909 2931 1356 
Q 2931 1769 2642 2001 
Q 2353 2234 1838 2234 
L 1294 2234 
L 1294 2753 
L 1863 2753 
Q 2328 2753 2575 2939 
Q 2822 3125 2822 3475 
Q 2822 3834 2567 4026 
Q 2313 4219 1838 4219 
Q 1578 4219 1281 4162 
Q 984 4106 628 3988 
L 628 4550 
Q 988 4650 1302 4700 
Q 1616 4750 1894 4750 
Q 2613 4750 3031 4423 
Q 3450 4097 3450 3541 
Q 3450 3153 3228 2886 
Q 3006 2619 2597 2516 
z
" transform="scale(0.015625)"/>
       </defs>
       <use xlink:href="#DejaVuSans-33"/>
      </g>
     </g>
    </g>
    <g id="ytick_4">
     <g id="line2d_6">
      <path d="M 297.4176 290.88 
C 297.4176 290.588787 297.360237 290.300407 297.248795 290.031361 
C 297.137353 289.762316 296.973998 289.517838 296.76808 289.31192 
C 296.562162 289.106002 296.317684 288.942647 296.048639 288.831205 
C 295.779593 288.719763 295.491213 288.6624 295.2 288.6624 
C 294.908787 288.6624 294.620407 288.719763 294.351361 288.831205 
C 294.082316 288.942647 293.837838 289.106002 293.63192 289.31192 
C 293.426002 289.517838 293.262647 289.762316 293.151205 290.031361 
C 293.039763 290.300407 292.9824 290.588787 292.9824 290.88 
C 292.9824 291.171213 293.039763 291.459593 293.151205 291.728639 
C 293.262647 291.997684 293.426002 292.242162 293.63192 292.44808 
C 293.837838 292.653998 294.082316 292.817353 294.351361 292.928795 
C 294.620407 293.040237 294.908787 293.0976 295.2 293.0976 
C 295.491213 293.0976 295.779593 293.040237 296.048639 292.928795 
C 296.317684 292.817353 296.562162 292.653998 296.76808 292.44808 
C 296.973998 292.242162 297.137353 291.997684 297.248795 291.728639 
C 297.360237 291.459593 297.4176 291.171213 297.4176 290.88 
" clip-path="url(#pf5bfe995fe)" style="fill: none; stroke: #b0b0b0; stroke-width: 0.8; stroke-linecap: square"/>
     </g>
     <g id="text_6">
      <!-- 4 -->
      <g style="fill: #808080" transform="translate(297.120498 287.275575)scale(0.12 -0.12)">
       <defs>
        <path id="DejaVuSans-34" d="M 2419 4116 
L 825 1625 
L 2419 1625 
L 2419 4116 
z
M 2253 4666 
L 3047 4666 
L 3047 1625 
L 3713 1625 
L 3713 1100 
L 3047 1100 
L 3047 0 
L 2419 0 
L 2419 1100 
L 313 1100 
L 313 1709 
L 2253 4666 
z
" transform="scale(0.015625)"/>
       </defs>
       <use xlink:href="#DejaVuSans-34"/>
      </g>
     </g>
    </g>
    <g id="ytick_5">
     <g id="line2d_7">
      <path d="M 297.972 290.88 
C 297.972 290.515984 297.900297 290.155508 297.760994 289.819202 
C 297.621691 289.482895 297.417498 289.177298 297.1601 288.9199 
C 296.902702 288.662502 296.597105 288.458309 296.260798 288.319006 
C 295.924492 288.179703 295.564016 288.108 295.2 288.108 
C 294.835984 288.108 294.475508 288.179703 294.139202 288.319006 
C 293.802895 288.458309 293.497298 288.662502 293.2399 288.9199 
C 292.982502 289.177298 292.778309 289.482895 292.639006 289.819202 
C 292.499703 290.155508 292.428 290.515984 292.428 290.88 
C 292.428 291.244016 292.499703 291.604492 292.639006 291.940798 
C 292.778309 292.277105 292.982502 292.582702 293.2399 292.8401 
C 293.497298 293.097498 293.802895 293.301691 294.139202 293.440994 
C 294.475508 293.580297 294.835984 293.652 295.2 293.652 
C 295.564016 293.652 295.924492 293.580297 296.260798 293.440994 
C 296.597105 293.301691 296.902702 293.097498 297.1601 292.8401 
C 297.417498 292.582702 297.621691 292.277105 297.760994 291.940798 
C 297.900297 291.604492 297.972 291.244016 297.972 290.88 
" clip-path="url(#pf5bfe995fe)" style="fill: none; stroke: #b0b0b0; stroke-width: 0.8; stroke-linecap: square"/>
     </g>
     <g id="text_7">
      <!-- 5 -->
      <g style="fill: #808080" transform="translate(297.600622 286.998375)scale(0.12 -0.12)">
       <defs>
        <path id="DejaVuSans-35" d="M 691 4666 
L 3169 4666 
L 3169 4134 
L 1269 4134 
L 1269 2991 
Q 1406 3038 1543 3061 
Q 1681 3084 1819 3084 
Q 2600 3084 3056 2656 
Q 3513 2228 3513 1497 
Q 3513 744 3044 326 
Q 2575 -91 1722 -91 
Q 1428 -91 1123 -41 
Q 819 9 494 109 
L 494 744 
Q 775 591 1075 516 
Q 1375 441 1709 441 
Q 2250 441 2565 725 
Q 2881 1009 2881 1497 
Q 2881 1984 2565 2268 
Q 2250 2553 1709 2553 
Q 1456 2553 1204 2497 
Q 953 2441 691 2322 
L 691 4666 
z
" transform="scale(0.015625)"/>
       </defs>
       <use xlink:href="#DejaVuSans-35"/>
      </g>
     </g>
    </g>
   </g>
   <g id="line2d_8">
    <path d="M 296.3088 290.88 
L 295.2 290.88 
L 296.3088 290.88 
" clip-path="url(#pf5bfe995fe)" style="fill: none; stroke: #1f77b4; stroke-linecap: square"/>
   </g>
   <g id="line2d_9">
    <path d="M 295.2 290.88 
L 294.0912 290.88 
L 295.2 290.88 
" clip-path="url(#pf5bfe995fe)" style="fill: none; stroke: #ff7f0e; stroke-linecap: square"/>
   </g>
   <g id="line2d_10">
    <path d="M 296.3088 290.88 
L 295.2 290.88 
L 296.3088 290.88 
" clip-path="url(#pf5bfe995fe)" style="fill: none; stroke: #2ca02c; stroke-linecap: square"/>
   </g>
   <g id="line2d_11">
    <path d="M 296.3088 290.88 
L 295.2 290.88 
L 296.3088 290.88 
" clip-path="url(#pf5bfe995fe)" style="fill: none; stroke: #d62728; stroke-linecap: square"/>
   </g>
   <g id="patch_7">
    <path d="M 516.96 290.88 
C 516.96 261.758744 511.223747 232.920655 500.079525 206.016122 
C 488.935303 179.111589 472.599838 154.663838 452.008 134.072 
C 431.416162 113.480162 406.968411 97.144697 380.063878 86.000475 
C 353.159345 74.856253 324.321256 69.12 295.2 69.12 
C 266.078744 69.12 237.240655 74.856253 210.336122 86.000475 
C 183.431589 97.144697 158.983838 113.480162 138.392 134.072 
C 117.800162 154.663838 101.464697 179.111589 90.320475 206.016122 
C 79.176253 232.920655 73.44 261.758744 73.44 290.88 
C 73.44 320.001256 79.176253 348.839345 90.320475 375.743878 
C 101.464697 402.648411 117.800162 427.096162 138.392 447.688 
C 158.983838 468.279838 183.431589 484.615303 210.336122 495.759525 
C 237.240655 506.903747 266.078744 512.64 295.2 512.64 
C 324.321256 512.64 353.159345 506.903747 380.063878 495.759525 
C 406.968411 484.615303 431.416162 468.279838 452.008 447.688 
C 472.599838 427.096162 488.935303 402.648411 500.079525 375.743878 
C 511.223747 348.839345 516.96 320.001256 516.96 290.88 
" style="fill: none; stroke: #000000; stroke-width: 0.8; stroke-linejoin: miter; stroke-linecap: square"/>
   </g>
   <g id="legend_1">
    <g id="patch_8">
     <path d="M -15.812688 536.113 
L 110.792 536.113 
Q 112.792 536.113 112.792 534.113 
L 112.792 475.288 
Q 112.792 473.288 110.792 473.288 
L -15.812688 473.288 
Q -17.812688 473.288 -17.812688 475.288 
L -17.812688 534.113 
Q -17.812688 536.113 -15.812688 536.113 
z
" style="fill: #ffffff; opacity: 0.8; stroke: #cccccc; stroke-linejoin: miter"/>
    </g>
    <g id="line2d_12">
     <path d="M -1 481.386437 
L 6.187312 481.386437 
" style="fill: none; stroke: #1f77b4; stroke-linecap: square"/>
    </g>
    <g id="text_8">
     <!-- Test_1_Fisher_p-fdr -->
     <g transform="translate(14.187312 484.886437)scale(0.1 -0.1)">
      <defs>
       <path id="DejaVuSans-54" d="M -19 4666 
L 3928 4666 
L 3928 4134 
L 2272 4134 
L 2272 0 
L 1638 0 
L 1638 4134 
L -19 4134 
L -19 4666 
z
" transform="scale(0.015625)"/>
       <path id="DejaVuSans-46" d="M 628 4666 
L 3309 4666 
L 3309 4134 
L 1259 4134 
L 1259 2759 
L 3109 2759 
L 3109 2228 
L 1259 2228 
L 1259 0 
L 628 0 
L 628 4666 
z
" transform="scale(0.015625)"/>
       <path id="DejaVuSans-2d" d="M 313 2009 
L 1997 2009 
L 1997 1497 
L 313 1497 
L 313 2009 
z
" transform="scale(0.015625)"/>
      </defs>
      <use xlink:href="#DejaVuSans-54"/>
      <use xlink:href="#DejaVuSans-65" x="44.083984"/>
      <use xlink:href="#DejaVuSans-73" x="105.607422"/>
      <use xlink:href="#DejaVuSans-74" x="157.707031"/>
      <use xlink:href="#DejaVuSans-5f" x="196.916016"/>
      <use xlink:href="#DejaVuSans-31" x="246.916016"/>
      <use xlink:href="#DejaVuSans-5f" x="310.539062"/>
      <use xlink:href="#DejaVuSans-46" x="360.539062"/>
      <use xlink:href="#DejaVuSans-69" x="410.808594"/>
      <use xlink:href="#DejaVuSans-73" x="438.591797"/>
      <use xlink:href="#DejaVuSans-68" x="490.691406"/>
      <use xlink:href="#DejaVuSans-65" x="554.070312"/>
      <use xlink:href="#DejaVuSans-72" x="615.59375"/>
      <use xlink:href="#DejaVuSans-5f" x="656.707031"/>
      <use xlink:href="#DejaVuSans-70" x="706.707031"/>
      <use xlink:href="#DejaVuSans-2d" x="770.183594"/>
      <use xlink:href="#DejaVuSans-66" x="806.267578"/>
      <use xlink:href="#DejaVuSans-64" x="841.472656"/>
      <use xlink:href="#DejaVuSans-72" x="904.949219"/>
     </g>
    </g>
    <g id="line2d_13">
     <path d="M -1 496.342688 
L 6.187312 496.342688 
" style="fill: none; stroke: #ff7f0e; stroke-linecap: square"/>
    </g>
    <g id="text_9">
     <!-- Test_2_Fisher_p-fdr -->
     <g transform="translate(14.187312 499.842688)scale(0.1 -0.1)">
      <use xlink:href="#DejaVuSans-54"/>
      <use xlink:href="#DejaVuSans-65" x="44.083984"/>
      <use xlink:href="#DejaVuSans-73" x="105.607422"/>
      <use xlink:href="#DejaVuSans-74" x="157.707031"/>
      <use xlink:href="#DejaVuSans-5f" x="196.916016"/>
      <use xlink:href="#DejaVuSans-32" x="246.916016"/>
      <use xlink:href="#DejaVuSans-5f" x="310.539062"/>
      <use xlink:href="#DejaVuSans-46" x="360.539062"/>
      <use xlink:href="#DejaVuSans-69" x="410.808594"/>
      <use xlink:href="#DejaVuSans-73" x="438.591797"/>
      <use xlink:href="#DejaVuSans-68" x="490.691406"/>
      <use xlink:href="#DejaVuSans-65" x="554.070312"/>
      <use xlink:href="#DejaVuSans-72" x="615.59375"/>
      <use xlink:href="#DejaVuSans-5f" x="656.707031"/>
      <use xlink:href="#DejaVuSans-70" x="706.707031"/>
      <use xlink:href="#DejaVuSans-2d" x="770.183594"/>
      <use xlink:href="#DejaVuSans-66" x="806.267578"/>
      <use xlink:href="#DejaVuSans-64" x="841.472656"/>
      <use xlink:href="#DejaVuSans-72" x="904.949219"/>
     </g>
    </g>
    <g id="line2d_14">
     <path d="M -1 511.298937 
L 6.187312 511.298937 
" style="fill: none; stroke: #2ca02c; stroke-linecap: square"/>
    </g>
    <g id="text_10">
     <!-- Test_3_Fisher_p-fdr -->
     <g transform="translate(14.187312 514.798937)scale(0.1 -0.1)">
      <use xlink:href="#DejaVuSans-54"/>
      <use xlink:href="#DejaVuSans-65" x="44.083984"/>
      <use xlink:href="#DejaVuSans-73" x="105.607422"/>
      <use xlink:href="#DejaVuSans-74" x="157.707031"/>
      <use xlink:href="#DejaVuSans-5f" x="196.916016"/>
      <use xlink:href="#DejaVuSans-33" x="246.916016"/>
      <use xlink:href="#DejaVuSans-5f" x="310.539062"/>
      <use xlink:href="#DejaVuSans-46" x="360.539062"/>
      <use xlink:href="#DejaVuSans-69" x="410.808594"/>
      <use xlink:href="#DejaVuSans-73" x="438.591797"/>
      <use xlink:href="#DejaVuSans-68" x="490.691406"/>
      <use xlink:href="#DejaVuSans-65" x="554.070312"/>
      <use xlink:href="#DejaVuSans-72" x="615.59375"/>
      <use xlink:href="#DejaVuSans-5f" x="656.707031"/>
      <use xlink:href="#DejaVuSans-70" x="706.707031"/>
      <use xlink:href="#DejaVuSans-2d" x="770.183594"/>
      <use xlink:href="#DejaVuSans-66" x="806.267578"/>
      <use xlink:href="#DejaVuSans-64" x="841.472656"/>
      <use xlink:href="#DejaVuSans-72" x="904.949219"/>
     </g>
    </g>
    <g id="line2d_15">
     <path d="M -1 526.255188 
L 6.187312 526.255188 
" style="fill: none; stroke: #d62728; stroke-linecap: square"/>
    </g>
    <g id="text_11">
     <!-- Test_4_Fisher_p-fdr -->
     <g transform="translate(14.187312 529.755188)scale(0.1 -0.1)">
      <use xlink:href="#DejaVuSans-54"/>
      <use xlink:href="#DejaVuSans-65" x="44.083984"/>
      <use xlink:href="#DejaVuSans-73" x="105.607422"/>
      <use xlink:href="#DejaVuSans-74" x="157.707031"/>
      <use xlink:href="#DejaVuSans-5f" x="196.916016"/>
      <use xlink:href="#DejaVuSans-34" x="246.916016"/>
      <use xlink:href="#DejaVuSans-5f" x="310.539062"/>
      <use xlink:href="#DejaVuSans-46" x="360.539062"/>
      <use xlink:href="#DejaVuSans-69" x="410.808594"/>
      <use xlink:href="#DejaVuSans-73" x="438.591797"/>
      <use xlink:href="#DejaVuSans-68" x="490.691406"/>
      <use xlink:href="#DejaVuSans-65" x="554.070312"/>
      <use xlink:href="#DejaVuSans-72" x="615.59375"/>
      <use xlink:href="#DejaVuSans-5f" x="656.707031"/>
      <use xlink:href="#DejaVuSans-70" x="706.707031"/>
      <use xlink:href="#DejaVuSans-2d" x="770.183594"/>
      <use xlink:href="#DejaVuSans-66" x="806.267578"/>
      <use xlink:href="#DejaVuSans-64" x="841.472656"/>
      <use xlink:href="#DejaVuSans-72" x="904.949219"/>
     </g>
    </g>
   </g>
  </g>
 </g>
 <defs>
  <clipPath id="pf5bfe995fe">
   <path d="M 516.96 290.88 
C 516.96 261.758744 511.223747 232.920655 500.079525 206.016122 
C 488.935303 179.111589 472.599838 154.663838 452.008 134.072 
C 431.416162 113.480162 406.968411 97.144697 380.063878 86.000475 
C 353.159345 74.856253 324.321256 69.12 295.2 69.12 
C 266.078744 69.12 237.240655 74.856253 210.336122 86.000475 
C 183.431589 97.144697 158.983838 113.480162 138.392 134.072 
C 117.800162 154.663838 101.464697 179.111589 90.320475 206.016122 
C 79.176253 232.920655 73.44 261.758744 73.44 290.88 
C 73.44 320.001256 79.176253 348.839345 90.320475 375.743878 
C 101.464697 402.648411 117.800162 427.096162 138.392 447.688 
C 158.983838 468.279838 183.431589 484.615303 210.336122 495.759525 
C 237.240655 506.903747 266.078744 512.64 295.2 512.64 
C 324.321256 512.64 353.159345 506.903747 380.063878 495.759525 
C 406.968411 484.615303 431.416162 468.279838 452.008 447.688 
C 472.599838 427.096162 488.935303 402.648411 500.079525 375.743878 
C 511.223747 348.839345 516.96 320.001256 516.96 290.88 
M 295.2 290.88 
C 295.2 290.88 295.2 290.88 295.2 290.88 
C 295.2 290.88 295.2 290.88 295.2 290.88 
C 295.2 290.88 295.2 290.88 295.2 290.88 
C 295.2 290.88 295.2 290.88 295.2 290.88 
C 295.2 290.88 295.2 290.88 295.2 290.88 
C 295.2 290.88 295.2 290.88 295.2 290.88 
C 295.2 290.88 295.2 290.88 295.2 290.88 
C 295.2 290.88 295.2 290.88 295.2 290.88 
C 295.2 290.88 295.2 290.88 295.2 290.88 
C 295.2 290.88 295.2 290.88 295.2 290.88 
C 295.2 290.88 295.2 290.88 295.2 290.88 
C 295.2 290.88 295.2 290.88 295.2 290.88 
C 295.2 290.88 295.2 290.88 295.2 290.88 
C 295.2 290.88 295.2 290.88 295.2 290.88 
C 295.2 290.88 295.2 290.88 295.2 290.88 
C 295.2 290.88 295.2 290.88 295.2 290.88 
M 516.96 290.88 
z
"/>
  </clipPath>
 </defs>
</svg>
